{"glyphs":{"0":{"ha":412,"x_min":0,"x_max":490,"o":"m 389 495 l 400 495 q 463 473 450 495 q 467 458 467 465 l 467 456 q 456 437 467 444 l 456 435 q 490 342 490 395 l 490 332 q 413 149 490 250 q 348 85 375 107 q 106 -14 225 -14 l 106 -14 q 14 28 36 -14 q 0 87 0 54 l 0 95 q 70 287 0 180 q 126 355 83 309 q 216 427 190 413 q 280 467 246 450 q 319 488 286 488 l 336 488 q 389 495 362 495 m 70 84 l 70 75 q 85 41 70 45 l 92 41 l 106 41 q 334 166 201 41 l 357 191 q 415 347 415 266 q 395 408 415 397 q 345 433 360 432 q 224 356 297 420 q 153 277 175 308 q 70 84 70 168 z "},"1":{"ha":210,"x_min":-43,"x_max":351,"o":"m 302 495 l 309 495 q 349 473 340 495 q 351 459 351 467 q 326 412 351 448 l 142 104 q 198 107 167 107 q 227 85 218 107 q 229 76 229 82 l 229 75 q 205 43 229 50 q 161 39 201 41 q 80 19 109 30 q -5 -14 1 -14 l -9 -14 q -42 17 -32 -14 l -43 26 l -43 33 q -16 67 -43 57 l 44 90 l 180 339 q 138 323 144 323 l 130 323 q 104 348 113 323 l 104 360 q 138 392 104 380 q 250 466 177 411 q 302 495 268 495 z "},"2":{"ha":484,"x_min":0,"x_max":551,"o":"m 460 495 l 467 495 q 547 452 527 495 q 551 422 551 439 l 551 421 q 420 231 551 337 q 293 139 347 170 q 228 101 230 101 l 228 100 l 315 73 q 394 60 362 60 q 447 75 422 60 q 452 83 452 80 l 452 84 q 417 109 452 96 q 404 134 404 119 q 427 163 404 157 l 433 164 q 486 144 456 162 q 521 83 521 120 q 439 -6 521 23 q 389 -14 414 -14 q 235 24 331 -14 q 143 52 161 52 q 57 20 111 37 q 42 18 50 18 l 38 18 q 1 42 12 18 l 0 52 l 0 55 q 58 117 0 95 q 120 125 84 125 l 124 125 l 138 124 q 330 247 254 195 q 440 372 426 318 q 447 402 447 394 q 427 415 447 415 l 420 415 q 258 355 363 415 q 217 323 239 342 q 199 318 208 318 q 170 342 178 318 l 170 348 l 170 352 q 198 389 170 372 q 252 426 227 412 q 460 495 378 495 z "},"3":{"ha":477,"x_min":0,"x_max":576,"o":"m 479 495 l 486 495 q 575 427 560 495 l 576 407 q 500 305 576 345 l 500 304 q 550 254 535 288 q 555 226 555 239 l 555 216 q 526 134 555 184 q 354 14 479 59 q 192 -14 277 -14 l 186 -14 q 14 51 61 -14 q 0 98 0 73 l 0 102 q 39 190 0 149 q 164 248 80 229 l 194 250 q 225 227 216 250 l 226 219 q 203 189 226 197 q 165 180 179 186 q 111 142 136 168 q 102 111 102 130 q 170 58 102 70 q 212 54 193 54 q 399 123 307 54 q 444 177 440 163 q 463 223 463 208 q 399 254 463 246 l 384 254 q 308 241 347 254 l 296 240 q 260 267 270 240 l 260 275 l 260 280 q 292 323 260 308 q 340 326 298 324 q 480 412 480 347 q 463 416 479 416 q 314 366 408 416 q 285 355 299 355 q 257 378 265 355 l 256 387 l 256 391 q 294 441 256 429 q 339 477 310 452 q 353 481 347 481 l 356 481 q 376 474 366 481 q 479 495 437 495 z "},"4":{"ha":427,"x_min":0,"x_max":550,"o":"m 499 502 l 507 502 q 549 478 540 502 l 550 469 q 526 431 550 458 q 362 215 405 275 l 362 214 q 424 205 403 205 q 465 227 449 205 l 467 239 l 467 239 l 464 258 q 484 284 464 277 l 492 285 q 536 223 523 285 l 537 214 q 457 148 537 159 l 425 146 l 418 146 q 328 160 380 146 q 287 43 293 92 q 295 18 295 24 l 295 17 q 274 -12 295 -5 l 262 -14 q 227 31 237 -14 l 227 44 q 258 168 227 74 q 262 177 259 168 q 191 186 222 186 l 189 186 q 43 151 142 186 l 37 150 l 35 150 q 1 182 12 150 l 0 189 l 0 195 q 50 239 0 231 q 84 250 77 245 q 378 411 233 323 q 456 468 419 437 q 477 494 463 475 q 499 502 488 502 m 204 249 l 205 249 q 292 237 237 249 q 370 341 292 243 l 370 342 l 368 342 q 204 249 300 301 l 204 249 z "},"5":{"ha":452,"x_min":0,"x_max":632,"o":"m 604 495 l 606 495 q 630 475 623 495 l 632 458 q 573 397 632 416 q 536 392 552 392 q 389 407 499 392 q 336 411 359 411 q 304 407 319 411 l 304 406 q 315 393 309 406 l 315 386 q 283 346 315 376 l 276 337 q 345 350 319 350 q 507 295 473 350 q 516 255 516 277 q 462 134 516 205 q 407 80 429 97 q 141 -14 278 -14 q 3 55 26 -10 q 0 75 0 66 l 0 79 q 57 176 0 125 q 76 184 67 184 l 81 184 q 102 161 99 184 q 81 125 102 145 q 68 100 68 110 l 68 95 q 123 50 68 68 q 156 45 140 45 l 168 45 q 352 123 252 45 q 404 184 396 164 q 427 245 427 221 l 427 248 q 348 294 427 284 l 333 294 q 220 260 279 294 q 166 236 170 236 l 161 236 q 138 262 140 236 q 155 294 138 281 q 241 401 224 382 l 241 402 l 242 402 q 238 420 238 410 l 238 423 q 255 467 238 457 q 326 484 276 484 l 341 484 q 474 456 381 484 q 539 446 515 446 l 541 446 q 575 460 556 446 q 580 479 578 461 q 604 495 589 495 z "},"6":{"ha":402,"x_min":0,"x_max":561,"o":"m 506 495 q 557 467 538 495 q 561 451 561 459 l 561 450 q 540 422 561 429 q 437 395 486 412 q 183 269 253 328 q 64 92 64 168 q 92 51 64 62 q 127 43 105 46 l 127 53 q 157 128 131 87 q 208 177 189 165 q 355 225 277 225 q 444 178 428 225 q 447 157 447 168 l 447 155 q 330 25 447 79 q 140 -14 219 -14 q 12 43 47 -14 q 0 93 0 65 l 0 98 q 125 313 0 196 q 205 372 170 351 q 392 464 312 431 q 423 491 392 483 l 506 495 m 184 47 q 269 68 227 55 q 321 95 297 78 q 365 152 365 127 l 365 155 q 349 161 365 161 q 217 109 283 161 q 187 64 193 83 l 184 47 z "},"7":{"ha":289,"x_min":25,"x_max":489,"o":"m 212 502 l 219 502 q 374 475 260 502 l 399 471 l 435 496 l 445 498 l 447 498 q 488 465 467 498 l 489 456 l 489 453 q 465 424 489 438 q 277 275 389 369 q 170 172 231 236 q 92 28 92 76 l 92 25 l 93 12 l 93 11 q 75 -12 93 -6 l 66 -14 q 37 8 44 -14 q 35 31 35 18 q 191 286 35 133 q 255 350 191 288 l 299 390 l 338 422 l 338 423 l 338 423 q 234 433 259 433 l 220 433 q 111 394 134 433 q 96 361 104 385 q 62 340 83 340 l 59 340 q 25 366 35 340 l 25 374 q 41 418 25 390 l 49 437 l 49 442 q 68 478 49 471 l 73 479 q 91 469 83 479 q 212 502 141 502 z "},"8":{"ha":408,"x_min":0,"x_max":559,"o":"m 392 495 l 401 495 q 489 463 459 495 q 499 429 499 450 l 499 427 q 532 436 523 435 q 558 416 551 436 l 559 411 l 559 407 q 505 368 559 376 q 382 326 443 351 l 371 320 q 465 210 465 276 q 313 43 465 125 q 108 -14 204 -14 q 5 39 28 -14 q 0 68 0 54 l 0 72 q 106 229 0 140 q 200 299 159 275 l 223 313 q 195 362 195 337 l 195 365 q 234 435 195 396 q 355 492 286 479 q 392 495 377 495 m 277 380 q 306 351 277 363 q 430 404 366 378 q 440 427 440 425 q 387 437 414 437 q 294 407 334 437 q 277 380 277 393 m 278 278 q 154 182 227 248 q 77 66 77 110 q 92 41 77 46 q 117 37 103 37 q 316 108 188 37 q 387 191 387 152 q 314 260 387 229 q 278 278 281 278 z "},"9":{"ha":182,"x_min":41,"x_max":414,"o":"m 369 502 l 382 502 q 403 482 403 498 l 403 479 q 400 465 403 471 q 414 441 414 458 l 414 439 q 391 408 414 425 q 279 304 344 368 q 254 277 279 303 l 212 228 q 132 40 132 123 q 134 30 132 30 q 146 11 146 23 l 146 10 q 124 -13 146 -6 l 119 -14 l 115 -14 q 70 23 79 -14 q 68 39 68 28 l 68 45 q 201 307 68 141 l 206 307 q 95 273 140 273 q 43 303 55 273 q 41 318 41 311 l 41 321 q 208 473 41 414 q 369 502 303 502 m 106 328 l 106 326 l 106 326 q 318 442 159 326 l 318 439 l 321 439 q 213 414 256 431 q 106 328 106 370 z "}," ":{"ha":345,"x_min":0,"x_max":0,"o":""},"!":{"ha":456,"x_min":0,"x_max":0,"o":""},"\"":{"ha":456,"x_min":0,"x_max":0,"o":""},"#":{"ha":906,"x_min":0,"x_max":0,"o":""},"$":{"ha":688,"x_min":0,"x_max":0,"o":""},"%":{"ha":1092,"x_min":0,"x_max":0,"o":""},"&":{"ha":1141,"x_min":0,"x_max":0,"o":""},"'":{"ha":235,"x_min":0,"x_max":0,"o":""},"(":{"ha":514,"x_min":0,"x_max":0,"o":""},")":{"ha":514,"x_min":0,"x_max":0,"o":""},"*":{"ha":694,"x_min":0,"x_max":0,"o":""},"+":{"ha":688,"x_min":0,"x_max":0,"o":""},",":{"ha":378,"x_min":0,"x_max":0,"o":""},"-":{"ha":454,"x_min":0,"x_max":0,"o":""},".":{"ha":378,"x_min":0,"x_max":0,"o":""},"/":{"ha":386,"x_min":0,"x_max":0,"o":""},":":{"ha":378,"x_min":0,"x_max":0,"o":""},";":{"ha":378,"x_min":0,"x_max":0,"o":""},"<":{"ha":688,"x_min":0,"x_max":0,"o":""},"=":{"ha":136,"x_min":-498,"x_max":-16,"o":"m -363 461 l -361 461 q -291 406 -328 461 q -261 340 -273 372 q -230 273 -243 289 l -229 273 l -227 274 q -206 258 -206 274 l -206 255 q -173 249 -192 249 l -170 249 l -115 255 l -106 255 q -31 233 -66 255 q -16 202 -16 221 q -75 134 -16 167 q -225 107 -131 107 l -226 107 q -233 100 -233 107 l -233 96 q -254 15 -233 50 q -288 0 -269 0 q -329 43 -317 0 q -335 85 -332 56 q -336 88 -336 85 q -349 85 -343 85 l -351 85 q -361 97 -361 85 l -361 98 l -360 109 q -470 122 -444 117 q -498 145 -498 131 l -498 148 q -446 208 -498 176 q -406 231 -406 226 l -406 233 l -416 264 q -425 333 -425 293 q -405 426 -425 377 q -363 461 -387 461 z "},">":{"ha":688,"x_min":0,"x_max":0,"o":""},"?":{"ha":507,"x_min":0,"x_max":0,"o":""},"@":{"ha":1369,"x_min":0,"x_max":0,"o":""},"A":{"ha":618,"x_min":0,"x_max":777,"o":"m 739 511 l 742 511 q 774 486 765 511 l 777 471 q 758 402 777 444 q 732 377 755 397 q 673 269 716 360 l 687 270 q 749 254 741 269 q 753 239 751 251 q 726 208 753 217 q 636 199 705 202 q 591 88 591 104 l 587 76 l 589 76 q 608 83 606 86 l 617 86 q 646 60 640 86 l 646 56 q 607 11 646 30 q 557 -1 578 -1 q 507 38 517 -1 q 504 64 505 45 q 537 199 504 121 l 536 199 l 517 198 l 516 198 q 345 47 382 68 q 148 -41 220 -41 l 138 -41 q 27 5 73 -41 q 0 83 0 41 l 0 90 q 93 294 0 184 q 175 366 151 354 q 322 425 258 425 l 334 425 q 416 372 399 425 l 418 351 q 397 271 418 317 q 418 276 408 276 q 480 270 463 270 q 671 465 564 353 l 701 492 q 739 511 726 511 m 660 373 l 561 266 l 561 265 l 587 265 l 661 373 l 660 373 m 92 69 l 92 66 q 107 33 92 40 q 134 28 119 28 q 395 192 216 28 q 371 209 378 197 l 368 224 l 369 228 q 332 207 348 207 l 328 207 q 300 235 300 211 l 300 235 q 316 270 300 245 q 342 332 342 316 q 324 357 342 357 q 178 266 264 357 q 125 184 142 219 q 92 69 92 108 z "},"B":{"ha":488,"x_min":0,"x_max":610,"o":"m 398 495 l 412 495 q 590 431 536 495 q 610 368 610 402 q 574 278 610 317 q 503 240 541 250 q 530 167 530 207 l 530 161 q 479 45 530 106 q 284 -14 397 -24 q 142 42 191 -14 q 56 0 88 0 l 54 0 q 4 40 22 0 q 0 65 0 53 l 0 71 q 60 212 0 131 q 92 238 79 234 l 92 239 q 64 302 64 261 q 180 448 64 386 q 398 495 278 495 m 138 295 q 155 271 138 281 q 163 250 163 260 q 153 230 163 239 q 176 182 170 211 l 176 182 q 297 340 254 286 q 374 422 331 383 l 377 425 l 376 425 q 245 395 324 425 q 174 347 213 382 q 138 295 138 311 m 484 414 l 484 414 q 487 398 487 406 q 455 360 487 370 q 382 297 446 360 l 381 297 l 381 296 q 408 292 392 292 q 510 328 478 292 q 521 368 521 349 l 521 373 q 484 414 521 399 m 321 231 q 212 101 284 177 l 208 99 q 284 55 237 55 l 286 55 l 290 54 l 293 55 l 296 55 q 398 103 343 55 q 435 166 435 142 q 391 217 435 199 q 321 231 332 223 m 98 144 q 73 73 73 96 l 74 73 q 111 107 91 86 l 111 108 q 98 144 102 138 z "},"C":{"ha":409,"x_min":0,"x_max":540,"o":"m 378 494 l 390 494 q 522 435 479 494 q 540 378 540 407 l 540 365 q 456 235 540 293 q 357 203 408 203 l 342 203 q 244 252 282 203 q 233 286 233 272 l 233 296 q 298 389 233 345 q 317 393 310 393 q 347 363 347 388 l 347 362 q 321 327 347 339 q 301 293 301 308 q 329 274 301 280 l 335 273 l 345 273 q 445 333 395 273 q 459 376 459 353 q 426 421 459 410 q 391 427 410 427 l 383 427 q 231 373 312 427 q 129 269 175 334 q 88 157 88 206 l 88 153 q 161 66 88 87 q 199 62 176 63 q 363 110 288 62 q 415 141 408 141 q 426 143 416 143 l 431 143 q 457 121 449 143 q 459 110 459 117 q 419 54 459 84 q 318 4 374 23 q 182 -14 247 -14 l 165 -14 q 18 69 67 -14 q 0 144 0 105 l 0 150 q 78 341 0 243 q 144 406 116 386 q 241 463 198 446 q 378 494 316 494 z "},"D":{"ha":547,"x_min":0,"x_max":631,"o":"m 353 479 l 365 479 q 579 400 511 479 q 631 272 631 345 l 631 271 q 549 75 631 178 l 511 43 q 276 -33 404 -41 l 265 -33 q 133 31 185 -24 q 56 -4 87 -4 l 54 -4 q 3 40 16 -4 q 0 63 0 52 l 0 68 q 45 205 0 117 q 88 243 67 239 q 66 297 66 269 q 172 437 66 379 q 353 479 255 479 m 147 284 q 163 266 147 275 q 170 246 170 256 q 148 220 170 228 l 142 219 l 138 219 q 152 158 145 203 l 153 158 q 280 319 204 219 q 359 407 311 358 q 252 382 292 399 q 147 284 147 334 m 479 390 l 479 388 q 448 350 479 361 q 357 269 433 349 q 280 172 317 226 q 203 88 250 134 l 191 77 l 191 75 q 264 54 220 54 q 422 96 343 54 q 532 235 496 139 q 541 284 541 262 q 480 390 541 348 l 479 390 m 77 117 q 64 63 64 94 l 66 60 q 98 73 79 60 l 98 75 q 78 117 90 83 l 77 117 z "},"E":{"ha":421,"x_min":0,"x_max":545,"o":"m 432 512 l 442 512 q 541 461 517 512 q 545 435 545 446 q 488 357 545 385 q 460 352 474 352 q 415 381 422 352 l 414 389 l 414 390 q 438 420 414 412 l 450 422 l 463 420 q 469 435 469 430 q 436 445 458 445 l 433 445 q 301 387 363 445 q 281 342 281 366 l 282 342 q 340 349 315 349 l 351 349 q 430 319 413 349 q 434 301 434 311 l 434 297 q 422 267 434 283 q 465 235 454 256 q 477 187 477 215 q 345 19 477 92 q 187 -14 276 -14 q 9 67 54 -14 q 0 111 0 88 l 0 117 q 84 251 0 178 q 163 300 127 285 l 201 317 q 195 354 195 337 l 195 359 q 317 490 195 438 q 432 512 378 512 m 95 115 l 95 110 q 153 62 95 74 l 182 60 l 231 64 q 205 118 205 83 l 205 120 q 293 245 205 192 q 249 262 284 245 q 111 159 155 230 q 95 115 95 132 m 279 121 l 279 121 q 302 87 302 108 l 302 84 q 396 170 373 116 q 400 193 400 185 q 393 203 400 203 l 390 203 q 300 158 355 203 q 279 121 280 136 z "},"F":{"ha":368,"x_min":0,"x_max":524,"o":"m 392 519 l 401 519 q 510 475 477 519 q 524 430 524 456 q 464 311 524 384 l 423 255 l 431 254 l 453 250 q 490 226 482 250 l 492 216 q 463 184 492 193 l 444 181 l 373 189 q 331 136 366 183 l 278 61 q 284 44 284 52 l 284 41 q 244 3 284 20 q 195 -14 223 -14 q 157 12 166 -14 l 156 20 l 156 22 q 256 180 156 54 q 229 190 238 180 l 228 190 q 102 136 172 136 l 98 136 q 5 195 31 136 q 0 229 0 211 l 0 236 q 143 435 0 335 q 392 519 274 519 m 81 227 q 97 208 83 208 q 115 205 97 206 q 200 274 161 205 q 205 290 203 281 l 204 297 q 231 324 208 324 l 233 324 q 273 294 258 324 l 276 278 l 273 256 l 317 256 q 425 412 410 382 q 431 435 431 428 q 398 452 431 452 l 390 452 q 227 399 324 452 q 150 342 196 382 q 81 227 81 275 z "},"G":{"ha":513,"x_min":0,"x_max":665,"o":"m 435 483 l 446 483 q 575 420 536 483 q 583 385 583 403 q 507 279 583 328 l 515 279 l 522 279 q 660 256 650 279 q 665 240 664 249 q 626 205 665 212 l 551 198 q 390 -58 471 84 q 358 -75 376 -75 q 327 -46 334 -75 l 326 -39 q 359 48 326 -12 l 358 48 q 178 -1 260 -1 l 163 -1 q 19 69 66 -1 q 0 137 0 100 l 0 144 q 145 374 0 257 q 227 425 191 407 q 435 483 345 483 m 395 398 q 411 365 411 385 l 410 333 q 423 325 410 325 l 430 325 q 502 358 463 325 q 511 376 511 369 q 479 400 511 389 q 447 402 462 402 l 442 402 q 395 398 422 402 m 90 138 q 144 73 90 92 q 182 68 163 68 q 418 172 281 68 l 439 193 l 439 193 q 296 178 323 183 l 288 178 q 244 202 254 178 q 241 217 241 208 q 363 275 241 264 q 337 344 337 302 l 337 353 q 343 385 337 370 l 342 385 q 117 217 203 338 q 90 138 90 172 z "},"H":{"ha":594,"x_min":-3,"x_max":829,"o":"m 793 591 l 798 591 q 828 562 822 592 l 828 559 q 819 536 829 547 q 755 477 802 527 l 728 445 q 599 252 645 338 l 600 251 q 619 222 618 243 q 557 170 621 192 q 528 86 530 108 l 528 86 q 590 119 541 90 q 603 123 597 122 l 604 123 q 632 106 623 124 l 633 96 q 533 18 635 66 q 508 13 519 14 q 444 62 463 10 q 440 84 441 75 q 453 155 439 112 l 452 155 q 319 151 375 154 q 258 24 282 81 q 218 1 242 2 q 180 29 189 -1 l 179 36 q 205 106 178 53 l 224 146 l 223 146 q 180 117 196 144 q 157 104 169 105 l 155 104 q 124 132 125 107 l 124 132 q 126 148 123 140 l 117 148 q 8 216 41 144 q 1 254 2 236 l 0 263 q 55 413 -3 334 q 330 551 169 543 q 461 492 425 555 q 469 463 469 475 l 470 451 q 422 332 472 408 l 364 230 q 461 228 439 227 l 486 229 q 587 397 532 317 q 738 563 667 510 q 793 591 779 590 m 88 251 l 88 242 q 105 217 90 220 l 117 217 q 184 274 158 219 q 191 306 192 291 l 191 307 q 180 331 191 315 q 178 342 178 335 q 201 373 177 364 l 210 374 q 254 326 239 376 l 256 309 q 235 228 258 269 l 235 227 l 271 231 q 374 429 368 402 q 380 463 381 450 l 380 467 q 343 484 379 486 l 340 484 q 125 355 210 477 q 88 251 85 292 z "},"I":{"ha":382,"x_min":0,"x_max":595,"o":"m 452 510 l 460 510 q 569 483 523 517 q 595 431 595 458 l 595 420 q 570 391 594 398 l 557 389 q 538 384 549 389 l 537 384 q 477 309 521 384 l 484 305 q 511 273 501 296 q 513 256 513 264 l 513 251 q 455 182 513 210 q 408 174 431 174 l 400 174 l 366 146 q 125 -34 237 -34 q 8 47 37 -34 q 0 104 0 76 l 0 114 q 98 319 0 248 q 172 343 135 343 l 183 343 q 243 321 215 343 l 243 321 l 243 326 q 277 426 243 375 q 340 476 316 465 q 452 510 398 510 m 331 309 q 339 288 331 294 l 340 288 q 420 388 360 323 q 481 444 466 431 l 481 444 l 473 437 q 370 399 425 437 q 334 330 347 382 l 331 309 m 114 218 l 114 218 q 134 190 134 208 l 134 186 q 123 152 134 178 l 127 149 q 191 212 158 149 q 201 255 201 235 l 201 262 q 189 278 201 278 l 187 278 q 114 218 153 278 m 272 247 q 203 106 272 179 q 125 72 167 72 q 82 85 100 72 q 119 39 92 39 l 121 39 q 300 227 185 39 q 272 247 293 228 z "},"J":{"ha":446,"x_min":7,"x_max":724,"o":"m 593 541 l 598 541 q 642 513 626 543 q 722 449 718 503 q 700 409 724 420 l 692 408 l 688 408 q 657 428 667 406 q 649 440 654 441 q 637 446 649 441 q 563 281 621 392 q 492 133 516 182 q 425 43 464 84 q 171 -80 288 -72 l 155 -81 q 28 -18 72 -87 q 12 34 14 7 l 12 41 q 82 195 7 113 q 223 266 155 261 q 331 221 293 271 q 348 172 346 198 q 306 73 352 120 q 277 61 290 62 l 276 61 q 245 90 250 59 q 259 126 244 101 q 264 159 266 144 l 264 164 q 236 195 262 188 l 227 195 l 224 195 q 128 122 178 191 q 98 35 96 68 l 99 33 q 134 -9 101 -2 q 163 -12 146 -14 l 169 -12 q 458 275 309 -2 q 541 451 519 391 l 539 451 q 445 416 497 448 q 428 395 427 402 q 450 367 428 391 q 454 353 454 359 q 419 317 456 324 l 416 317 q 351 360 378 315 q 345 386 346 374 l 345 387 q 422 489 341 447 q 538 517 478 513 l 554 517 q 593 541 571 540 z "},"K":{"ha":788,"x_min":0,"x_max":1045,"o":"m 960 507 l 967 507 q 1039 479 1018 507 q 1045 458 1045 467 l 1045 452 q 1022 418 1045 427 q 1013 417 1019 417 l 1010 417 q 987 427 998 417 l 981 427 q 859 397 937 427 q 646 264 779 366 q 502 157 545 187 q 591 90 531 138 q 671 33 644 47 q 705 27 691 27 l 709 27 l 709 31 q 740 92 713 71 l 750 96 l 755 96 q 809 78 789 107 q 820 52 819 68 l 820 47 q 741 -43 812 -11 q 695 -52 719 -52 l 682 -52 q 541 20 620 -52 q 448 103 484 58 q 428 117 429 117 q 401 105 420 113 q 300 5 357 52 q 143 -62 209 -62 l 132 -62 q 40 -28 82 -62 q 0 60 0 9 l 0 68 q 64 197 0 132 q 211 255 127 255 q 285 201 267 255 l 286 184 q 257 147 286 153 l 255 147 q 221 174 233 147 q 205 184 216 184 l 200 184 q 96 112 143 184 q 80 52 80 83 q 104 11 80 22 q 138 3 124 3 q 243 60 169 3 q 323 143 311 123 q 316 180 316 159 q 346 252 316 220 l 346 253 q 310 279 326 253 q 306 298 308 284 q 365 393 306 339 q 445 443 401 425 q 541 478 511 478 q 579 452 570 478 l 581 441 q 488 235 581 398 l 489 235 q 752 431 675 380 q 867 487 803 466 q 960 507 929 507 m 386 319 q 427 298 420 319 l 427 296 q 469 375 440 316 l 473 386 q 397 332 434 368 l 386 319 z "},"L":{"ha":450,"x_min":0,"x_max":597,"o":"m 507 519 l 513 519 q 594 463 576 519 l 597 441 l 597 435 q 524 279 597 368 q 443 215 479 235 q 306 174 368 174 l 301 174 l 281 175 l 221 100 q 269 68 235 87 q 365 39 338 39 q 427 68 417 43 q 459 112 427 112 q 497 71 483 112 l 499 59 q 435 -22 499 9 q 375 -34 406 -34 l 365 -34 q 188 28 281 -34 l 168 44 q 72 4 121 4 q 3 55 20 4 q 0 77 0 64 l 0 83 q 58 226 0 142 q 103 255 81 255 q 166 189 138 255 q 172 176 168 189 l 199 213 l 199 214 q 160 285 160 243 l 160 293 q 198 368 160 334 q 248 388 223 388 l 255 388 q 302 358 283 388 l 302 358 q 507 519 423 519 m 345 258 l 349 255 q 445 313 401 273 q 509 410 487 361 q 521 449 521 438 q 513 454 519 454 q 419 366 488 454 q 345 258 345 270 m 232 288 q 243 271 232 279 l 243 271 l 270 311 l 270 312 q 252 321 264 321 q 232 292 239 321 l 232 288 m 71 96 l 71 92 q 77 76 71 82 q 119 105 90 79 q 92 154 101 134 q 74 117 86 151 q 71 96 71 104 z "},"M":{"ha":705,"x_min":0,"x_max":863,"o":"m 345 496 l 355 496 q 457 443 435 496 q 465 405 465 425 l 463 378 l 465 377 q 505 415 466 377 q 603 464 561 464 q 652 421 644 464 l 654 413 q 633 342 654 387 l 635 342 q 786 468 677 380 q 813 476 802 476 l 815 476 q 863 412 854 476 l 863 406 q 804 326 863 382 q 693 179 746 259 q 648 72 636 71 l 659 74 q 726 123 713 123 q 745 111 743 123 q 747 102 747 107 l 747 100 q 643 -9 747 64 q 614 -14 628 -14 q 566 28 578 -14 q 562 60 562 47 q 607 202 562 115 l 606 203 q 547 144 597 201 q 481 54 490 63 q 422 20 456 20 q 387 41 397 20 q 383 55 385 46 q 406 101 383 68 q 530 325 481 222 l 532 330 l 530 332 l 528 332 q 484 290 523 332 q 365 148 412 210 q 300 53 319 89 q 302 43 302 50 l 302 41 q 264 3 302 18 q 247 0 255 0 l 235 0 q 193 26 203 0 l 191 38 q 222 107 191 53 q 130 77 176 77 l 115 77 q 14 140 50 77 q 0 199 0 167 l 0 206 q 155 441 0 322 q 239 479 186 461 q 345 496 299 496 m 82 178 q 111 142 82 142 l 115 142 q 216 198 189 142 l 217 205 q 211 224 211 212 q 239 252 216 252 l 244 252 q 285 217 275 252 l 286 203 l 286 203 l 334 280 q 378 394 378 358 l 378 401 q 355 427 378 416 l 339 429 q 146 315 249 429 q 82 178 82 239 z "},"N":{"ha":597,"x_min":0,"x_max":751,"o":"m 349 494 l 357 494 q 452 444 429 494 q 460 406 460 427 l 460 404 q 444 325 460 370 q 620 441 547 405 q 690 466 674 466 l 695 466 q 749 422 734 466 l 751 410 q 689 323 751 382 q 612 224 643 269 q 530 92 556 137 l 527 80 l 528 80 q 611 109 601 109 q 631 96 631 109 l 631 87 q 528 -5 631 52 q 503 -9 513 -9 l 499 -9 q 450 42 460 -14 l 449 54 l 449 63 q 578 333 449 149 l 577 333 q 459 243 536 311 q 351 130 363 149 q 296 54 313 86 q 298 41 298 47 q 257 2 298 17 q 235 -1 248 -1 q 188 24 199 -1 l 186 35 l 186 37 q 217 105 186 55 l 217 106 q 117 77 172 77 q 12 138 45 77 q 0 191 0 162 l 0 199 q 163 438 0 313 q 349 494 262 494 m 77 175 q 88 146 77 152 q 104 142 95 142 l 117 142 q 212 197 182 142 l 213 203 q 206 222 206 211 l 206 224 q 237 252 206 250 q 279 219 268 252 l 281 203 l 281 203 q 366 353 347 302 q 374 397 374 381 q 355 422 374 422 l 342 425 q 149 315 256 425 q 77 175 77 236 z "},"O":{"ha":462,"x_min":0,"x_max":566,"o":"m 406 495 l 415 495 q 552 434 511 495 q 566 382 566 410 q 550 322 566 351 q 553 294 553 309 l 553 288 q 399 41 559 144 q 161 -23 288 -28 q 50 24 86 -13 q 0 138 0 73 l 0 146 q 52 300 0 217 q 109 366 65 322 q 406 495 258 495 m 297 406 l 298 406 q 359 412 331 412 q 502 349 444 412 l 502 355 q 443 424 502 406 q 399 430 422 430 q 301 410 353 430 l 297 406 m 89 129 l 89 127 q 119 73 89 84 q 161 68 135 68 l 162 68 q 392 170 282 68 l 393 170 l 393 171 l 392 171 q 370 163 381 163 l 369 163 q 341 186 349 163 l 340 192 q 375 235 340 210 q 458 310 408 260 q 432 347 456 323 q 337 375 398 375 q 277 390 284 375 q 275 391 277 391 q 209 346 243 374 q 145 273 158 297 q 89 129 89 189 z "},"P":{"ha":635,"x_min":0,"x_max":786,"o":"m 513 470 l 520 470 q 547 455 537 470 q 671 431 592 454 q 785 322 785 391 l 785 313 q 736 203 786 254 q 575 128 686 147 q 478 127 517 122 q 412 142 441 127 q 319 16 369 75 q 134 -62 242 -62 q 12 1 46 -62 q 0 52 0 24 l 0 60 q 75 199 0 136 q 127 229 115 228 q 168 239 146 236 l 168 239 q 99 273 127 239 q 89 308 89 290 l 89 313 q 180 414 89 370 q 481 458 288 458 q 513 470 499 470 m 178 317 q 200 312 182 313 q 272 332 231 312 q 300 346 288 346 l 305 346 q 333 323 325 346 l 333 315 q 270 257 333 288 q 210 241 227 241 l 210 239 l 211 239 q 275 210 243 239 q 294 159 294 187 l 294 155 q 239 64 294 117 q 218 57 227 57 q 191 80 199 57 l 190 88 q 205 122 190 98 q 212 146 212 136 l 212 153 q 188 172 212 169 l 183 172 q 86 96 129 172 q 77 52 77 73 q 100 14 77 24 q 127 9 114 9 l 136 9 q 284 98 223 9 q 368 246 309 138 q 439 389 410 318 l 438 389 q 247 355 357 389 q 178 317 203 340 m 541 387 q 509 303 528 340 q 452 203 482 250 l 463 203 l 471 203 q 632 248 545 203 q 701 324 701 294 q 606 377 701 354 q 541 387 587 382 z "},"Q":{"ha":502,"x_min":-1,"x_max":562,"o":"m 390 507 l 399 507 q 539 453 495 512 q 556 402 555 431 q 543 342 558 371 q 548 314 547 329 l 548 307 q 382 64 555 182 q 358 50 359 52 q 484 3 439 3 l 481 16 q 509 46 484 45 l 511 46 q 555 12 534 47 q 560 -10 557 5 q 499 -75 562 -51 l 482 -77 l 475 -77 q 258 12 405 -81 q 184 1 223 3 l 170 0 q 113 3 134 -2 q 84 -20 104 -18 q 49 20 56 -21 l 48 34 q 3 130 6 73 l 3 138 q 46 294 -1 208 q 100 362 59 317 q 390 507 243 498 m 277 402 l 278 401 q 332 411 307 410 l 342 412 q 485 355 423 416 l 486 355 l 486 356 q 429 427 482 411 q 378 432 404 433 q 278 405 329 429 l 277 402 m 93 138 q 136 155 113 154 q 269 105 182 157 q 282 99 279 98 q 391 179 338 125 q 393 180 391 180 l 395 182 l 395 182 l 393 182 q 372 174 382 174 l 370 174 q 340 201 347 173 q 373 246 340 219 q 446 319 412 279 l 447 320 l 447 322 q 384 355 433 344 q 313 358 347 360 q 265 393 267 369 l 265 395 l 266 396 l 266 397 l 265 397 q 176 319 228 377 q 123 239 134 267 q 93 139 94 178 l 93 138 m 109 71 q 158 52 109 54 l 170 52 q 215 62 205 54 l 215 63 q 154 85 200 74 q 130 87 140 88 q 109 71 108 86 z "},"R":{"ha":509,"x_min":-7,"x_max":640,"o":"m 395 486 l 408 487 q 626 412 575 495 q 637 370 637 390 q 594 273 640 319 q 546 241 574 256 q 413 208 481 212 l 382 207 q 425 94 411 120 q 466 50 454 49 q 505 94 473 54 q 532 112 515 111 l 533 112 q 556 81 554 119 q 507 -1 555 56 q 454 -25 482 -24 q 366 25 405 -27 q 326 114 348 56 q 313 151 314 150 q 239 55 287 109 q 83 -28 163 -23 l 77 -28 q 0 12 20 -31 q -5 33 -4 25 l -5 39 q 41 146 -7 85 q 92 174 67 173 q 122 153 113 175 l 123 145 q 93 102 123 127 q 67 50 66 69 l 67 46 l 79 45 l 88 45 q 271 222 149 49 q 259 237 260 231 q 140 186 204 189 q 65 224 81 183 l 63 235 l 62 237 q 109 359 60 295 q 189 426 155 408 q 395 486 279 480 m 147 256 l 150 256 q 230 302 186 258 q 259 336 246 334 l 268 338 q 299 317 290 339 l 300 306 l 299 300 l 307 300 q 326 298 316 301 q 446 408 407 406 q 490 378 479 410 l 491 368 q 456 321 488 323 q 437 326 448 321 q 409 286 424 307 l 409 286 q 494 307 444 288 q 543 356 532 326 q 545 371 545 366 l 545 374 q 492 414 544 399 q 406 418 448 420 q 215 350 319 414 q 147 256 145 302 z "},"S":{"ha":485,"x_min":0,"x_max":605,"o":"m 448 459 l 458 459 q 595 401 557 459 q 605 365 605 381 l 605 357 q 528 275 605 296 q 497 271 511 271 q 456 296 466 271 l 455 303 l 455 307 q 479 335 455 326 q 521 342 521 339 q 524 351 524 346 l 524 352 q 481 385 524 378 q 454 387 470 387 l 440 387 q 313 351 372 387 q 278 307 278 321 q 403 267 278 285 q 469 246 445 258 q 522 170 522 218 l 522 163 q 479 62 522 113 q 400 9 446 29 q 307 -18 329 -18 q 255 -25 290 -22 q 219 -51 246 -51 l 213 -51 q 143 -22 183 -51 q 96 -7 127 -16 q 42 26 65 3 q 0 124 0 76 l 0 130 q 45 209 0 175 q 84 219 65 219 q 134 174 121 219 q 146 87 137 159 q 163 50 148 73 q 212 40 173 40 q 389 98 313 40 q 426 153 426 134 q 390 173 421 163 q 247 210 266 199 q 186 291 186 243 l 186 298 q 283 418 186 361 q 448 459 368 459 m 58 124 q 87 63 58 92 q 97 59 94 59 q 100 64 100 60 l 100 68 q 83 127 100 75 q 76 149 80 149 l 71 149 q 58 124 58 138 z "},"T":{"ha":326,"x_min":-15,"x_max":711,"o":"m 238 541 l 248 541 q 373 534 307 547 q 556 473 502 488 q 616 464 597 463 l 621 465 q 640 473 635 466 q 626 498 627 485 q 652 528 629 526 l 653 528 q 702 492 680 531 q 707 475 706 483 l 707 471 q 648 397 711 423 q 621 393 634 393 l 612 391 q 559 396 591 390 q 539 359 561 371 l 528 356 l 507 358 q 447 273 481 338 q 305 39 326 70 q 152 -48 227 -53 l 143 -49 q 32 24 60 -47 q 21 73 23 49 l 20 91 q 40 215 15 145 q -5 301 -1 248 l -6 310 q 89 489 -15 408 q 238 541 155 533 m 79 296 l 80 286 l 81 286 q 241 385 152 377 q 321 351 298 390 q 330 320 329 335 q 233 140 338 239 q 143 98 186 102 q 94 111 115 96 q 93 75 93 92 q 130 24 98 22 l 134 25 q 254 127 192 30 q 373 343 352 307 q 448 427 415 409 l 448 428 q 308 465 338 468 l 277 465 q 96 368 155 454 q 79 296 77 325 m 163 253 q 219 239 204 256 l 222 232 l 222 232 q 260 313 263 282 l 260 314 l 260 314 l 252 314 q 163 253 212 310 z "},"U":{"ha":513,"x_min":0,"x_max":660,"o":"m 395 478 l 402 478 q 485 434 464 478 l 488 419 l 488 413 q 447 322 488 385 q 345 168 418 267 q 321 123 321 134 q 323 119 321 119 l 326 119 q 484 278 450 239 q 581 393 526 326 q 623 417 605 417 l 630 417 q 659 393 651 417 l 660 385 l 660 383 q 652 349 656 349 q 593 258 652 338 q 499 117 548 196 l 507 117 q 534 94 526 117 l 534 88 q 463 10 534 56 q 423 -2 442 -2 q 382 22 393 -2 q 380 35 380 29 l 380 39 q 396 87 380 53 q 313 17 328 20 q 239 -7 275 -7 l 233 -7 q 184 26 197 -7 l 182 39 q 208 108 182 62 l 207 108 q 95 62 144 62 l 81 62 q 4 120 24 62 q 0 148 0 132 l 0 153 q 210 414 0 267 q 313 463 256 444 q 395 478 359 478 m 77 144 l 77 141 q 90 127 77 127 q 168 163 133 127 q 214 186 191 186 q 241 163 235 186 l 243 163 q 362 336 267 201 q 399 397 389 374 q 384 409 399 406 q 194 302 338 409 q 118 222 141 255 q 77 144 77 165 z "},"V":{"ha":432,"x_min":-4,"x_max":823,"o":"m 762 549 l 767 549 q 816 526 804 551 q 821 507 820 518 q 795 470 823 479 l 787 469 q 766 474 781 469 q 669 419 747 473 q 487 165 578 347 q 380 21 437 62 q 272 -24 332 -21 l 267 -24 q 233 6 241 -16 l 232 17 q 302 224 237 54 q 332 357 333 344 l 332 366 q 292 420 330 410 q 268 422 279 422 l 259 421 q 132 352 196 418 q 83 260 92 302 q 80 233 79 246 l 81 221 q 117 168 82 184 q 139 164 128 164 l 144 165 q 191 196 174 166 q 194 214 195 206 l 193 229 l 193 231 q 221 264 197 262 l 224 264 q 257 240 247 265 l 261 221 l 268 214 q 200 116 264 162 q 142 97 170 99 l 133 97 q 24 150 70 94 q 1 223 3 183 l 1 231 q 88 420 -4 330 q 280 504 181 498 q 414 441 375 509 q 426 393 425 420 q 377 152 429 323 l 377 151 l 378 151 q 527 384 440 271 q 597 458 578 448 q 762 549 698 545 z "},"W":{"ha":663,"x_min":0,"x_max":842,"o":"m 370 502 l 378 502 q 447 463 430 502 q 450 446 450 453 l 450 438 q 407 323 450 402 q 503 404 473 389 q 541 415 517 415 q 590 387 578 415 l 591 381 l 591 377 q 572 345 591 366 q 480 192 517 270 q 446 87 446 120 l 446 87 q 460 73 446 73 l 461 73 q 628 203 520 73 q 720 387 709 310 q 681 437 681 408 q 716 480 681 468 q 727 481 720 481 l 732 481 q 774 452 758 481 l 779 449 q 810 460 793 460 q 842 429 842 456 q 801 385 842 401 l 802 372 q 722 166 802 293 q 611 46 664 80 q 469 -4 529 -17 l 460 -4 q 380 52 401 5 q 372 94 372 71 q 412 236 372 142 q 333 155 353 182 q 202 -3 281 94 q 154 -27 178 -27 q 119 -1 128 -27 q 117 14 117 4 q 155 98 117 50 l 204 170 l 203 170 q 89 133 142 133 q 9 175 36 133 q 0 210 0 191 l 0 216 q 113 389 0 285 q 320 495 207 467 q 370 502 347 502 m 90 212 q 111 205 90 205 q 194 249 145 205 q 219 260 207 260 q 248 235 241 260 l 248 233 q 359 427 342 368 q 346 429 353 429 l 342 429 q 183 349 288 428 q 119 279 132 302 q 90 212 90 238 z "},"X":{"ha":522,"x_min":0,"x_max":782,"o":"m 410 484 l 418 484 q 524 359 524 484 l 524 357 q 713 476 664 476 l 731 477 q 781 449 772 477 l 782 443 l 782 439 q 757 408 782 418 q 715 401 730 407 q 507 249 667 384 q 471 94 481 152 l 471 93 q 525 131 487 102 q 543 139 537 139 l 549 139 q 573 117 570 139 q 508 36 573 82 q 433 5 459 5 q 388 41 401 5 q 386 62 386 53 l 386 66 q 402 159 386 90 l 401 159 q 249 35 286 59 q 85 -20 162 -20 l 82 -20 q 7 28 30 -20 q 0 66 0 45 l 0 73 q 54 216 0 140 q 85 231 68 231 q 114 208 106 231 l 115 199 q 92 150 115 187 q 76 88 76 115 l 76 83 q 94 49 76 53 l 98 49 q 365 217 160 49 q 440 292 440 281 q 448 332 448 307 l 448 338 q 430 406 448 397 q 410 412 424 412 q 257 317 346 412 q 229 255 229 279 q 252 235 232 235 q 300 256 267 235 l 310 257 q 336 231 336 252 l 336 227 q 296 183 336 209 q 236 170 270 170 q 158 228 174 170 l 156 245 q 198 365 156 300 q 351 475 258 445 q 410 484 381 484 z "},"Y":{"ha":499,"x_min":0,"x_max":647,"o":"m 351 472 l 359 472 q 447 422 426 472 q 450 404 450 413 l 450 396 q 313 171 450 334 q 265 94 273 124 q 412 218 309 121 q 534 361 515 326 q 609 406 568 406 l 612 406 q 647 379 639 406 l 647 370 q 618 312 647 357 q 431 -47 576 195 q 231 -163 332 -171 l 229 -163 q 143 -115 180 -163 q 134 -81 134 -97 q 163 -41 134 -51 l 176 -40 q 209 -58 202 -40 q 223 -93 218 -93 l 233 -94 l 233 -94 q 342 -15 275 -90 q 425 111 407 75 q 309 28 324 33 q 235 1 266 1 l 231 1 q 172 46 186 1 q 170 64 170 56 l 170 75 q 176 117 170 94 q 99 96 134 96 l 86 96 q 5 163 30 96 q 0 194 0 180 l 0 203 q 158 411 0 306 q 351 472 270 472 m 80 194 q 109 171 80 171 l 113 171 q 186 208 137 171 q 229 231 221 231 l 235 231 q 248 228 239 231 q 368 403 362 366 l 368 404 l 346 407 q 159 319 283 407 q 80 194 80 250 z "},"Z":{"ha":499,"x_min":0,"x_max":703,"o":"m 640 472 q 701 429 684 472 l 703 415 l 703 402 q 665 359 703 378 q 640 355 654 355 q 591 368 616 355 q 302 179 460 292 q 208 107 252 142 l 208 102 l 208 102 q 319 115 304 115 l 349 115 q 530 76 490 132 q 540 47 540 60 q 456 -35 527 2 q 439 -39 448 -39 q 410 -9 410 -34 l 410 -7 q 418 17 410 4 q 292 30 374 30 q 130 12 253 30 q 71 8 90 8 q 45 -2 63 -2 q 4 22 18 -2 q 0 38 0 29 l 0 51 q 46 108 0 88 l 56 109 q 77 101 64 109 q 207 216 157 180 q 450 380 325 307 l 452 382 q 441 389 452 389 l 412 389 q 253 353 315 389 q 241 340 244 345 l 244 323 q 211 291 244 295 l 206 291 q 165 332 177 291 l 163 348 l 163 349 q 251 448 163 416 q 370 463 291 463 q 567 445 471 463 q 628 472 614 472 l 640 472 z "},"[":{"ha":514,"x_min":0,"x_max":0,"o":""},"\\":{"ha":386,"x_min":0,"x_max":0,"o":""},"]":{"ha":514,"x_min":0,"x_max":0,"o":""},"^":{"ha":688,"x_min":0,"x_max":0,"o":""},"_":{"ha":694,"x_min":0,"x_max":0,"o":""},"`":{"ha":694,"x_min":0,"x_max":0,"o":""},"a":{"ha":261,"x_min":0,"x_max":315,"o":"m 203 263 l 208 263 q 245 245 237 263 q 275 226 259 245 q 282 207 281 217 q 235 116 287 177 q 208 72 208 77 l 210 71 q 275 123 242 81 q 296 137 281 134 q 315 113 315 137 q 298 68 315 94 q 199 5 248 5 q 147 37 169 5 q 144 43 146 43 q 69 0 98 0 q 7 35 33 0 q 0 64 0 47 l 0 70 q 117 232 0 140 q 203 263 164 263 m 68 62 l 69 60 l 70 60 q 144 127 97 67 q 190 188 184 168 l 189 189 l 186 189 q 117 131 168 184 q 68 62 68 76 z "},"b":{"ha":235,"x_min":0,"x_max":288,"o":"m 209 349 l 213 349 q 251 324 236 349 l 253 312 l 253 309 q 237 284 253 297 q 192 233 200 245 l 192 232 q 224 203 211 232 q 229 170 229 186 l 229 170 q 220 130 229 161 q 233 111 227 111 q 248 136 235 111 q 267 153 261 153 q 286 132 288 153 q 251 62 286 96 q 222 52 234 52 q 172 76 195 52 q 134 32 165 58 q 54 0 94 0 q 3 41 17 0 q 0 68 0 56 l 0 76 q 106 270 0 129 q 209 349 167 349 m 75 66 l 75 62 q 133 115 101 71 q 151 148 151 142 q 147 182 147 164 l 147 183 q 75 66 75 96 z "},"c":{"ha":201,"x_min":0,"x_max":243,"o":"m 174 252 l 180 252 q 231 216 217 252 l 233 195 q 200 158 233 166 l 192 157 l 191 157 q 161 176 161 162 l 159 188 q 85 118 123 173 q 71 78 73 93 q 89 62 71 62 q 170 106 122 62 q 213 137 208 137 q 222 139 216 139 q 243 115 243 130 l 243 110 q 200 50 243 90 q 74 0 136 -3 q 17 24 46 0 q 0 68 0 43 l 0 73 q 93 217 0 136 q 174 252 138 252 z "},"d":{"ha":296,"x_min":0,"x_max":376,"o":"m 330 353 l 336 353 q 376 320 376 348 l 376 318 q 350 276 376 302 q 236 126 265 171 q 212 71 212 89 l 212 64 q 216 58 212 60 l 218 58 q 298 127 245 58 q 316 135 307 134 l 320 135 q 345 111 345 132 q 331 81 345 93 q 213 0 254 0 l 204 0 q 153 40 170 0 q 150 46 151 46 q 73 0 102 0 l 65 0 q 3 42 24 0 q 0 62 0 53 l 0 69 q 99 216 0 133 q 203 261 155 261 l 206 261 q 235 255 222 261 q 330 353 296 353 m 71 66 q 77 60 71 60 q 133 117 84 60 q 186 182 185 174 q 180 191 186 189 q 121 148 164 189 q 72 73 80 103 l 71 66 z "},"e":{"ha":221,"x_min":0,"x_max":256,"o":"m 174 252 l 180 252 q 231 217 216 252 l 233 203 q 107 87 233 137 l 75 81 l 73 66 q 80 58 73 58 l 81 58 l 81 57 q 209 115 132 57 q 235 123 224 123 q 256 99 256 115 q 189 30 256 62 q 74 0 134 0 q 17 24 46 0 q 0 68 0 43 l 0 73 q 93 223 0 148 q 174 252 138 252 m 79 126 l 81 125 l 82 125 q 166 167 116 125 q 187 205 187 191 q 176 211 187 211 l 175 211 q 110 168 162 211 q 79 126 79 140 z "},"f":{"ha":153,"x_min":-176,"x_max":279,"o":"m 211 387 l 217 387 q 275 354 246 387 q 279 336 279 342 l 279 330 q 258 293 279 302 l 248 291 l 244 291 q 222 306 236 291 l 217 308 q 185 281 205 308 l 168 249 l 180 249 l 254 241 q 275 220 275 235 l 275 216 q 219 180 276 182 l 133 181 q 20 -39 94 93 q -104 -129 -44 -129 l -114 -129 q -173 -79 -150 -129 q -176 -58 -176 -67 l -176 -55 q -149 -28 -170 -28 l -149 -28 q -123 -57 -126 -28 q -115 -66 -123 -66 l -112 -66 q 16 88 -50 -66 q 53 176 33 123 l 53 176 q 2 201 12 179 l 1 210 l 1 214 q 33 248 1 237 l 45 249 l 84 249 l 106 290 q 211 387 158 387 z "},"g":{"ha":250,"x_min":-54,"x_max":311,"o":"m 197 263 l 202 263 q 258 237 243 262 q 309 201 292 227 l 310 193 l 310 187 q 255 89 311 154 q 150 -44 195 11 q 18 -129 80 -129 l 11 -129 q -53 -73 -32 -129 l -54 -58 l -54 -55 q -27 -28 -48 -28 l -26 -28 q -1 -56 -4 -28 l 5 -62 l 7 -62 q 103 9 39 -58 l 102 9 q 64 1 77 1 q 5 31 31 1 q -5 66 -5 45 l -5 71 q 112 233 -5 141 q 197 263 159 263 m 75 73 q 77 69 75 69 q 202 184 111 69 l 209 200 q 202 205 209 205 q 96 113 167 198 q 75 73 77 87 z "},"h":{"ha":258,"x_min":-27,"x_max":314,"o":"m 203 366 l 206 366 q 237 332 231 366 l 237 330 q 160 212 237 310 l 161 212 q 237 248 215 248 l 244 248 q 281 211 281 243 l 281 210 q 263 175 281 196 q 200 81 215 112 q 271 141 226 98 q 288 146 279 146 l 291 146 q 313 121 312 142 l 314 118 q 297 88 314 102 q 182 5 214 5 l 176 5 q 122 56 132 5 l 121 68 l 121 73 q 136 126 121 94 q 66 52 75 73 q 16 0 32 0 l 10 0 q -26 22 -17 0 q -27 31 -27 25 l -27 33 q 5 103 -27 50 q 126 298 68 217 q 203 366 175 366 z "},"i":{"ha":151,"x_min":0,"x_max":206,"o":"m 157 298 l 162 298 q 205 264 191 298 l 206 256 l 206 251 q 172 211 206 224 l 163 210 l 163 203 q 138 164 163 193 q 68 60 71 78 l 70 60 q 144 111 96 68 q 176 135 163 135 l 178 135 q 199 115 201 135 q 100 13 199 75 q 62 0 76 0 l 56 0 q 1 43 15 0 l 0 60 l 0 66 q 61 201 0 112 q 113 240 92 240 l 114 241 l 114 241 l 113 253 l 113 255 q 148 297 113 285 l 157 298 z "},"j":{"ha":113,"x_min":-174,"x_max":199,"o":"m 149 304 l 155 304 q 195 279 177 304 q 199 263 199 271 l 199 258 q 170 224 199 234 q 161 222 167 222 l 157 222 l 157 222 q 175 185 175 202 q 121 77 172 157 q 7 -73 64 -5 q -86 -135 -37 -127 l -92 -135 q -165 -97 -131 -129 q -174 -72 -174 -85 l -174 -67 q -157 -38 -174 -45 q -147 -36 -153 -36 l -144 -36 q -113 -60 -133 -36 q -106 -63 -110 -63 l -104 -63 q 12 75 -66 -65 l 12 75 q -10 94 -3 75 l -11 99 q 17 141 -11 117 q 75 206 55 185 q 121 231 99 231 q 105 265 105 245 q 135 302 105 293 l 149 304 z "},"k":{"ha":273,"x_min":-6,"x_max":328,"o":"m 222 366 q 261 340 254 366 l 261 330 q 213 264 261 321 q 235 267 223 267 l 242 267 q 300 227 276 267 q 307 201 307 213 q 235 114 307 150 q 158 96 199 96 l 149 98 q 144 94 144 97 q 188 59 155 60 q 291 132 221 59 q 305 136 298 136 q 327 121 323 136 l 328 116 l 328 109 q 286 50 328 94 q 163 -1 234 -1 q 99 28 132 -1 q 81 55 83 46 l 79 55 l 56 12 q 38 3 48 3 q 1 27 22 3 q -6 48 -6 37 l -6 52 q 159 323 -2 106 q 214 366 195 366 l 222 366 m 142 161 q 153 151 144 151 q 227 184 184 151 q 239 204 238 197 q 231 212 239 211 q 147 172 199 212 q 142 161 142 165 z "},"l":{"ha":161,"x_min":0,"x_max":239,"o":"m 194 361 l 199 361 q 237 334 222 361 l 239 327 l 239 321 q 212 281 239 313 q 73 69 87 116 q 81 62 75 62 q 171 133 102 66 q 199 147 184 147 q 224 121 220 147 q 126 21 224 90 q 72 0 93 0 q 3 56 21 0 q 0 75 0 66 l 0 78 q 89 256 0 115 q 194 361 157 361 z "},"m":{"ha":397,"x_min":-61,"x_max":450,"o":"m 244 253 l 248 253 q 288 214 288 248 l 286 207 l 288 207 q 367 245 341 245 l 374 245 q 410 223 394 245 q 414 208 414 216 q 370 144 414 195 q 327 70 330 91 l 328 68 l 330 68 q 401 122 368 82 q 432 137 416 137 q 450 116 450 134 l 450 113 q 383 33 450 85 q 324 9 347 9 l 319 9 q 262 44 277 9 q 257 71 257 56 q 268 115 257 87 q 239 84 256 105 q 204 28 204 37 q 172 0 194 0 l 166 0 q 133 28 142 0 l 132 38 q 158 119 133 60 l 157 119 q 68 14 115 76 q 45 0 54 0 l 40 0 q 1 37 13 0 l 0 45 l -1 45 q -32 28 -19 28 l -36 28 q -61 53 -61 32 l -61 54 q -28 93 -61 74 q 31 155 14 130 l 89 235 q 121 250 103 250 l 127 250 q 158 219 158 245 l 158 213 q 152 198 158 209 l 153 198 q 244 253 216 253 z "},"n":{"ha":259,"x_min":-24,"x_max":317,"o":"m 244 253 l 257 254 q 293 223 285 252 l 294 215 q 273 175 294 198 q 205 77 212 102 l 205 77 l 208 75 q 269 132 217 75 q 292 144 279 144 q 317 119 317 140 l 317 119 q 244 27 317 93 q 191 0 212 0 l 185 0 q 131 44 143 0 l 130 56 l 130 64 l 131 86 q 75 17 104 52 q 50 0 60 0 l 44 0 q 5 37 17 0 l 5 41 l 5 44 l 6 57 l 6 58 l 5 58 q -23 72 -16 56 l -24 75 l -24 79 l -24 82 q 9 127 -24 94 q 99 235 71 203 q 119 245 112 245 l 124 245 q 159 222 149 245 l 161 211 l 161 208 l 160 200 l 161 200 q 236 251 213 245 l 244 253 z "},"o":{"ha":186,"x_min":-7,"x_max":263,"o":"m 157 263 l 163 263 q 205 227 200 263 l 207 198 l 207 197 l 209 195 q 242 202 236 202 q 263 180 260 202 l 263 180 q 202 128 263 155 q 140 45 201 115 q 58 0 96 0 l 50 0 q -6 52 8 0 l -7 64 l -7 68 q 78 215 -7 121 q 157 263 124 263 m 60 79 q 68 68 61 68 q 132 134 91 77 q 149 174 149 164 l 149 176 q 140 189 147 189 q 87 134 130 189 q 60 79 60 93 z "},"p":{"ha":227,"x_min":-68,"x_max":278,"o":"m 127 239 l 130 239 q 153 224 146 239 q 197 233 183 233 l 202 233 q 273 190 251 233 q 278 163 278 177 q 156 13 278 81 q 95 -1 123 -1 q 28 14 43 -1 l 27 14 q 0 -62 0 -37 q 12 -88 0 -65 l 12 -97 q -18 -122 6 -122 q -60 -86 -39 -122 q -68 -47 -68 -66 l -68 -42 q 69 201 -68 26 q 127 239 102 239 m 72 66 q 91 58 75 58 l 96 58 q 184 111 134 58 q 201 158 201 135 l 201 160 q 182 174 201 174 q 128 138 159 174 q 75 74 82 92 q 72 66 72 71 z "},"q":{"ha":204,"x_min":-14,"x_max":277,"o":"m 211 258 l 217 258 q 267 222 267 254 l 267 217 q 277 195 277 206 q 252 149 277 180 q 184 87 209 104 l 161 75 q 191 53 176 71 q 203 10 203 31 q 151 -102 203 -41 q 87 -130 123 -129 l 81 -130 q 33 -89 47 -130 q 30 -60 30 -75 l 30 -60 q 60 29 37 -19 l 59 29 q 41 26 49 26 l 39 26 q -12 64 -1 26 l -14 79 l -14 85 q 53 191 -14 130 q 121 233 90 220 q 211 258 176 258 m 52 90 l 52 87 q 58 85 53 85 q 148 144 82 85 q 178 186 178 174 l 178 187 q 174 192 178 191 q 92 136 146 185 q 52 90 54 102 m 88 -66 q 99 -78 90 -78 q 132 16 116 -78 l 132 22 q 127 32 132 29 l 126 32 q 104 -1 110 32 q 88 -66 96 -21 z "},"r":{"ha":238,"x_min":-7,"x_max":299,"o":"m 139 304 l 144 304 q 176 277 167 304 l 177 269 q 165 236 177 256 l 167 236 q 188 244 178 244 l 192 244 q 228 216 215 244 l 229 211 l 229 206 q 203 166 229 193 q 165 111 178 132 q 156 81 156 92 l 157 77 l 159 74 l 163 73 q 237 123 190 79 q 271 142 262 142 l 276 142 q 298 128 294 142 l 299 123 l 299 118 q 237 37 299 92 q 146 0 184 0 q 83 44 104 0 q 78 75 78 60 q 95 146 78 104 l 95 147 l 94 147 q 64 111 91 146 q 20 76 35 76 l 15 76 q -7 98 -3 76 l -7 102 q 25 151 -7 119 q 88 254 82 220 q 139 304 108 304 z "},"s":{"ha":230,"x_min":-11,"x_max":292,"o":"m 201 300 l 205 300 q 243 277 232 300 l 245 271 l 246 264 q 213 225 248 234 q 197 110 195 184 l 197 101 l 199 98 q 233 123 204 95 q 264 149 253 149 l 270 149 q 292 129 286 149 l 292 123 q 263 71 292 101 q 184 29 224 35 q 151 16 169 28 q 94 0 128 0 q 15 62 36 0 l 14 62 q -9 79 -5 62 q -11 88 -11 82 l -11 91 q 11 127 -11 107 l 170 285 q 201 300 190 300 m 75 102 q 102 81 83 81 l 104 81 q 127 117 120 81 q 140 176 133 132 q 76 103 76 115 l 75 102 l 75 102 z "},"t":{"ha":208,"x_min":0,"x_max":252,"o":"m 155 310 l 158 310 q 199 285 180 310 l 201 273 q 194 252 200 262 l 231 252 q 252 232 252 249 l 252 229 q 229 203 252 210 q 131 180 214 197 q 68 64 68 91 q 78 57 68 57 q 170 94 119 62 l 205 124 q 220 128 212 128 l 221 128 q 244 103 241 128 q 185 39 244 74 q 73 0 115 0 l 66 0 q 1 49 18 0 l 0 64 l 0 69 q 44 182 0 102 l 43 183 q 24 215 24 193 q 69 252 29 252 l 92 252 q 129 297 115 283 q 155 310 142 310 z "},"u":{"ha":277,"x_min":-10,"x_max":321,"o":"m 259 248 l 264 248 q 304 218 294 248 l 306 208 q 261 142 306 193 q 214 76 219 92 l 214 75 l 214 75 q 272 118 236 83 q 296 130 282 130 q 321 105 321 126 l 321 100 q 279 54 321 83 q 193 0 220 0 l 189 0 q 132 38 146 0 l 132 41 q 52 -3 87 -3 l 47 -3 q 2 35 15 -3 q -1 57 -1 47 l 2 75 q -10 94 -5 75 l -10 98 q 18 140 -10 112 q 96 230 81 217 q 138 246 115 246 q 174 216 174 243 l 174 210 q 155 180 174 197 q 81 77 97 114 l 81 76 l 83 76 q 184 185 155 147 q 259 248 236 248 z "},"v":{"ha":203,"x_min":0,"x_max":276,"o":"m 199 300 q 252 266 218 300 q 267 222 267 246 q 124 19 276 113 q 59 -3 75 -3 q 5 25 31 0 l 3 27 q 0 42 0 33 l 0 45 q 60 216 0 71 q 99 252 77 252 l 103 252 q 142 218 130 252 l 143 210 q 99 96 139 192 l 98 93 l 98 92 l 99 91 q 179 159 109 91 q 203 225 203 205 q 177 249 203 236 q 168 271 168 260 q 195 300 168 294 l 199 300 z "},"w":{"ha":302,"x_min":0,"x_max":342,"o":"m 117 248 l 121 248 q 157 212 157 243 l 157 203 q 143 153 157 195 l 144 153 q 182 215 168 197 q 218 239 196 239 q 245 223 231 239 q 251 202 251 214 q 215 126 251 174 q 195 78 195 94 l 195 77 q 205 64 196 64 l 208 64 q 270 148 237 64 q 275 176 275 169 q 265 216 275 200 l 264 223 q 289 245 269 245 l 294 245 q 336 194 319 245 q 339 170 339 181 l 339 168 q 266 26 342 91 q 191 5 229 5 q 123 70 142 5 q 119 79 121 79 q 81 21 117 77 q 47 0 65 0 l 42 0 q 5 23 28 0 q 0 37 0 31 l 0 41 q 65 200 0 72 q 117 248 92 248 z "},"x":{"ha":264,"x_min":-15,"x_max":339,"o":"m 302 310 l 305 310 q 339 273 336 310 l 339 271 q 307 231 339 252 q 231 172 243 184 q 186 118 186 125 l 186 111 q 197 69 186 76 l 199 68 q 260 111 227 68 q 282 119 271 119 q 306 94 302 119 l 306 93 q 286 62 306 75 q 175 -1 224 -1 q 117 54 133 -1 q 113 62 115 59 q 88 29 111 62 q 43 -35 62 -10 q 13 -54 28 -54 q -15 -27 -15 -50 l -15 -24 q 3 10 -15 -14 q 92 126 36 61 q 111 153 111 144 l 112 160 l 112 172 l 111 173 l 43 94 q 22 83 34 83 q -1 109 1 83 q 24 156 0 126 q 102 254 65 210 q 154 281 127 281 q 192 250 182 281 l 193 242 l 193 225 l 193 225 l 289 305 l 293 308 q 302 310 296 310 z "},"y":{"ha":272,"x_min":-41,"x_max":326,"o":"m 138 229 l 144 229 q 182 194 182 225 l 182 189 q 92 92 182 176 l 92 91 l 92 87 q 178 144 98 87 q 233 200 216 176 q 277 225 252 225 q 318 198 300 225 q 322 180 322 190 q 281 93 326 159 q 222 11 262 64 q 161 -62 195 -22 q 35 -125 90 -125 l 28 -125 q -38 -72 -15 -125 l -41 -52 l -41 -45 q -26 -17 -41 -29 q 6 -43 -13 -17 q 28 -56 20 -56 q 114 -7 57 -56 q 159 52 144 29 l 159 52 l 158 52 q 54 2 92 2 q 3 43 16 2 l 1 56 q 86 199 1 102 q 138 229 116 229 z "},"z":{"ha":250,"x_min":0,"x_max":294,"o":"m 130 263 l 137 263 q 224 243 165 263 l 245 245 q 292 221 280 245 q 294 208 294 214 l 294 207 q 254 170 294 179 l 244 168 l 225 171 q 139 94 200 155 l 119 73 l 119 69 q 174 61 138 64 q 229 69 222 59 l 233 85 q 264 119 233 116 q 287 100 283 118 q 290 81 290 90 l 290 76 q 218 5 286 29 q 176 0 195 0 q 79 30 117 0 l 71 35 q 35 22 54 22 q 0 58 3 22 l 0 62 q 21 111 0 81 q 52 127 39 127 q 74 111 62 127 l 150 192 l 150 195 q 126 206 139 206 q 113 200 113 206 q 119 182 119 191 q 97 159 115 159 l 93 159 q 54 187 61 159 q 50 208 50 196 q 92 258 50 244 q 130 263 113 263 z "},"{":{"ha":688,"x_min":0,"x_max":0,"o":""},"|":{"ha":688,"x_min":0,"x_max":0,"o":""},"}":{"ha":688,"x_min":0,"x_max":0,"o":""},"~":{"ha":688,"x_min":0,"x_max":0,"o":""},"¡":{"ha":456,"x_min":0,"x_max":0,"o":""},"¢":{"ha":772,"x_min":0,"x_max":0,"o":""},"£":{"ha":688,"x_min":0,"x_max":0,"o":""},"¤":{"ha":688,"x_min":0,"x_max":0,"o":""},"¥":{"ha":856,"x_min":0,"x_max":0,"o":""},"¦":{"ha":688,"x_min":0,"x_max":0,"o":""},"§":{"ha":688,"x_min":0,"x_max":0,"o":""},"¨":{"ha":694,"x_min":0,"x_max":0,"o":""},"©":{"ha":1135,"x_min":0,"x_max":0,"o":""},"ª":{"ha":439,"x_min":0,"x_max":0,"o":""},"«":{"ha":640,"x_min":0,"x_max":0,"o":""},"¬":{"ha":688,"x_min":0,"x_max":0,"o":""},"®":{"ha":1135,"x_min":0,"x_max":0,"o":""},"¯":{"ha":454,"x_min":0,"x_max":0,"o":""},"°":{"ha":457,"x_min":0,"x_max":0,"o":""},"±":{"ha":688,"x_min":0,"x_max":0,"o":""},"²":{"ha":688,"x_min":0,"x_max":0,"o":""},"³":{"ha":688,"x_min":0,"x_max":0,"o":""},"´":{"ha":694,"x_min":0,"x_max":0,"o":""},"µ":{"ha":800,"x_min":0,"x_max":0,"o":""},"¶":{"ha":694,"x_min":0,"x_max":0,"o":""},"·":{"ha":345,"x_min":0,"x_max":0,"o":""},"¸":{"ha":694,"x_min":0,"x_max":0,"o":""},"¹":{"ha":688,"x_min":0,"x_max":0,"o":""},"º":{"ha":487,"x_min":0,"x_max":0,"o":""},"»":{"ha":640,"x_min":0,"x_max":0,"o":""},"¼":{"ha":1158,"x_min":0,"x_max":0,"o":""},"½":{"ha":1332,"x_min":0,"x_max":0,"o":""},"¾":{"ha":1158,"x_min":0,"x_max":0,"o":""},"¿":{"ha":507,"x_min":0,"x_max":0,"o":""},"À":{"ha":618,"x_min":0,"x_max":777,"o":"m 739 511 l 742 511 q 774 486 765 511 l 777 471 q 758 402 777 444 q 732 377 755 397 q 673 269 716 360 l 687 270 q 749 254 741 269 q 753 239 751 251 q 726 208 753 217 q 636 199 705 202 q 591 88 591 104 l 587 76 l 589 76 q 608 83 606 86 l 617 86 q 646 60 640 86 l 646 56 q 607 11 646 30 q 557 -1 578 -1 q 507 38 517 -1 q 504 64 505 45 q 537 199 504 121 l 536 199 l 517 198 l 516 198 q 345 47 382 68 q 148 -41 220 -41 l 138 -41 q 27 5 73 -41 q 0 83 0 41 l 0 90 q 93 294 0 184 q 175 366 151 354 q 322 425 258 425 l 334 425 q 416 372 399 425 l 418 351 q 397 271 418 317 q 418 276 408 276 q 480 270 463 270 q 671 465 564 353 l 701 492 q 739 511 726 511 m 660 373 l 561 266 l 561 265 l 587 265 l 661 373 l 660 373 m 92 69 l 92 66 q 107 33 92 40 q 134 28 119 28 q 395 192 216 28 q 371 209 378 197 l 368 224 l 369 228 q 332 207 348 207 l 328 207 q 300 235 300 211 l 300 235 q 316 270 300 245 q 342 332 342 316 q 324 357 342 357 q 178 266 264 357 q 125 184 142 219 q 92 69 92 108 m 665 607 l 703 605 q 746 542 716 595 l 771 492 l 769 491 l 751 492 l 728 491 q 626 581 675 545 l 623 588 q 637 607 624 608 l 665 607 z "},"Á":{"ha":622,"x_min":0,"x_max":901,"o":"m 739 511 l 742 511 q 774 486 765 511 l 777 471 q 758 402 777 444 q 732 377 755 397 q 673 269 716 360 l 687 270 q 749 254 741 269 q 753 239 751 251 q 726 208 753 217 q 636 199 705 202 q 591 88 591 104 l 587 76 l 589 76 q 608 83 606 86 l 617 86 q 646 60 640 86 l 646 56 q 607 11 646 30 q 557 -1 578 -1 q 507 38 517 -1 q 504 64 505 45 q 537 199 504 121 l 536 199 l 517 198 l 516 198 q 345 47 382 68 q 148 -41 220 -41 l 138 -41 q 27 5 73 -41 q 0 83 0 41 l 0 90 q 93 294 0 184 q 175 366 151 354 q 322 425 258 425 l 334 425 q 416 372 399 425 l 418 351 q 397 271 418 317 q 418 276 408 276 q 480 270 463 270 q 671 465 564 353 l 701 492 q 739 511 726 511 m 660 373 l 561 266 l 561 265 l 587 265 l 661 373 l 660 373 m 92 69 l 92 66 q 107 33 92 40 q 134 28 119 28 q 395 192 216 28 q 371 209 378 197 l 368 224 l 369 228 q 332 207 348 207 l 328 207 q 300 235 300 211 l 300 235 q 316 270 300 245 q 342 332 342 316 q 324 357 342 357 q 178 266 264 357 q 125 184 142 219 q 92 69 92 108 m 819 589 l 856 582 q 899 562 901 572 l 897 554 q 821 517 894 543 l 754 482 l 729 489 l 711 493 l 709 495 l 708 495 q 809 588 753 546 l 819 589 z "},"Â":{"ha":1044,"x_min":0,"x_max":808,"o":"m 741 593 l 774 589 q 787 563 783 583 l 795 536 q 808 475 800 515 q 791 460 808 463 q 748 535 768 460 q 695 472 745 535 l 680 474 l 679 474 q 665 488 665 475 l 665 494 q 728 586 665 503 q 741 593 734 593 m 739 511 l 742 511 q 774 486 765 511 l 777 471 q 758 402 777 444 q 732 377 755 397 q 673 269 716 360 l 687 270 q 749 254 741 269 q 753 239 751 251 q 726 208 753 217 q 636 199 705 202 q 591 88 591 104 l 587 76 l 589 76 q 608 83 606 86 l 617 86 q 646 60 640 86 l 646 56 q 607 11 646 30 q 557 -1 578 -1 q 507 38 517 -1 q 504 64 505 45 q 537 199 504 121 l 536 199 l 517 198 l 516 198 q 345 47 382 68 q 148 -41 220 -41 l 138 -41 q 27 5 73 -41 q 0 83 0 41 l 0 90 q 93 294 0 184 q 175 366 151 354 q 322 425 258 425 l 334 425 q 416 372 399 425 l 418 351 q 397 271 418 317 q 418 276 408 276 q 480 270 463 270 q 671 465 564 353 l 701 492 q 739 511 726 511 m 660 373 l 561 266 l 561 265 l 587 265 l 661 373 l 660 373 m 92 69 l 92 66 q 107 33 92 40 q 134 28 119 28 q 395 192 216 28 q 371 209 378 197 l 368 224 l 369 228 q 332 207 348 207 l 328 207 q 300 235 300 211 l 300 235 q 316 270 300 245 q 342 332 342 316 q 324 357 342 357 q 178 266 264 357 q 125 184 142 219 q 92 69 92 108 z "},"Ã":{"ha":618,"x_min":0,"x_max":887,"o":"m 739 511 l 742 511 q 774 486 765 511 l 777 471 q 758 402 777 444 q 732 377 755 397 q 673 269 716 360 l 687 270 q 749 254 741 269 q 753 239 751 251 q 726 208 753 217 q 636 199 705 202 q 591 88 591 104 l 587 76 l 589 76 q 608 83 606 86 l 617 86 q 646 60 640 86 l 646 56 q 607 11 646 30 q 557 -1 578 -1 q 507 38 517 -1 q 504 64 505 45 q 537 199 504 121 l 536 199 l 517 198 l 516 198 q 345 47 382 68 q 148 -41 220 -41 l 138 -41 q 27 5 73 -41 q 0 83 0 41 l 0 90 q 93 294 0 184 q 175 366 151 354 q 322 425 258 425 l 334 425 q 416 372 399 425 l 418 351 q 397 271 418 317 q 418 276 408 276 q 480 270 463 270 q 671 465 564 353 l 701 492 q 739 511 726 511 m 660 373 l 561 266 l 561 265 l 587 265 l 661 373 l 660 373 m 92 69 l 92 66 q 107 33 92 40 q 134 28 119 28 q 395 192 216 28 q 371 209 378 197 l 368 224 l 369 228 q 332 207 348 207 l 328 207 q 300 235 300 211 l 300 235 q 316 270 300 245 q 342 332 342 316 q 324 357 342 357 q 178 266 264 357 q 125 184 142 219 q 92 69 92 108 m 700 578 l 713 578 q 808 536 729 578 l 817 536 q 865 571 836 536 l 871 571 q 887 556 887 571 l 887 549 q 834 479 887 511 l 819 477 l 801 477 q 718 516 784 477 l 698 519 q 652 486 680 519 l 639 481 q 623 496 623 481 l 623 503 q 676 574 623 545 q 700 578 684 578 z "},"Ä":{"ha":618,"x_min":0,"x_max":840,"o":"m 739 511 l 742 511 q 774 486 765 511 l 777 471 q 758 402 777 444 q 732 377 755 397 q 673 269 716 360 l 687 270 q 749 254 741 269 q 753 239 751 251 q 726 208 753 217 q 636 199 705 202 q 591 88 591 104 l 587 76 l 589 76 q 608 83 606 86 l 617 86 q 646 60 640 86 l 646 56 q 607 11 646 30 q 557 -1 578 -1 q 507 38 517 -1 q 504 64 505 45 q 537 199 504 121 l 536 199 l 517 198 l 516 198 q 345 47 382 68 q 148 -41 220 -41 l 138 -41 q 27 5 73 -41 q 0 83 0 41 l 0 90 q 93 294 0 184 q 175 366 151 354 q 322 425 258 425 l 334 425 q 416 372 399 425 l 418 351 q 397 271 418 317 q 418 276 408 276 q 480 270 463 270 q 671 465 564 353 l 701 492 q 739 511 726 511 m 660 373 l 561 266 l 561 265 l 587 265 l 661 373 l 660 373 m 92 69 l 92 66 q 107 33 92 40 q 134 28 119 28 q 395 192 216 28 q 371 209 378 197 l 368 224 l 369 228 q 332 207 348 207 l 328 207 q 300 235 300 211 l 300 235 q 316 270 300 245 q 342 332 342 316 q 324 357 342 357 q 178 266 264 357 q 125 184 142 219 q 92 69 92 108 m 807 538 q 840 508 829 538 l 840 500 q 804 463 835 463 l 802 463 q 765 500 765 469 l 765 505 q 795 538 765 527 l 807 538 m 702 560 q 739 529 730 560 l 739 522 q 713 486 739 496 l 702 484 q 664 520 664 490 l 664 526 q 695 560 664 549 l 702 560 z "},"Å":{"ha":619,"x_min":0,"x_max":842,"o":"m 791 586 q 840 545 825 586 l 842 534 l 842 533 q 800 481 842 494 l 788 479 l 787 479 q 736 520 751 479 l 735 530 l 735 536 q 781 586 735 573 l 791 586 m 762 533 l 762 532 q 789 507 762 511 q 814 532 814 513 q 789 559 814 554 l 788 559 q 762 533 762 555 m 739 511 l 742 511 q 774 486 765 511 l 777 471 q 758 402 777 444 q 732 377 755 397 q 673 269 716 360 l 687 270 q 749 254 741 269 q 753 239 751 251 q 726 208 753 217 q 636 199 705 202 q 591 88 591 104 l 587 76 l 589 76 q 608 83 606 86 l 617 86 q 646 60 640 86 l 646 56 q 607 11 646 30 q 557 -1 578 -1 q 507 38 517 -1 q 504 64 505 45 q 537 199 504 121 l 536 199 l 517 198 l 516 198 q 345 47 382 68 q 148 -41 220 -41 l 138 -41 q 27 5 73 -41 q 0 83 0 41 l 0 90 q 93 294 0 184 q 175 366 151 354 q 322 425 258 425 l 334 425 q 416 372 399 425 l 418 351 q 397 271 418 317 q 418 276 408 276 q 480 270 463 270 q 671 465 564 353 l 701 492 q 739 511 726 511 m 660 373 l 561 266 l 561 265 l 587 265 l 661 373 l 660 373 m 92 69 l 92 66 q 107 33 92 40 q 134 28 119 28 q 395 192 216 28 q 371 209 378 197 l 368 224 l 369 228 q 332 207 348 207 l 328 207 q 300 235 300 211 l 300 235 q 316 270 300 245 q 342 332 342 316 q 324 357 342 357 q 178 266 264 357 q 125 184 142 219 q 92 69 92 108 z "},"Æ":{"ha":1436,"x_min":0,"x_max":0,"o":""},"Ç":{"ha":408,"x_min":0,"x_max":540,"o":"m 378 494 l 390 494 q 522 435 479 494 q 540 378 540 407 l 540 365 q 456 235 540 293 q 357 203 408 203 l 342 203 q 244 252 282 203 q 233 286 233 272 l 233 296 q 298 389 233 345 q 317 393 310 393 q 347 363 347 388 l 347 362 q 321 327 347 339 q 301 293 301 308 q 329 274 301 280 l 335 273 l 345 273 q 445 333 395 273 q 459 376 459 353 q 426 421 459 410 q 391 427 410 427 l 383 427 q 231 373 312 427 q 129 269 175 334 q 88 157 88 206 l 88 153 q 161 66 88 87 q 199 62 176 63 q 363 110 288 62 q 415 141 408 141 q 426 143 416 143 l 431 143 q 457 121 449 143 q 459 110 459 117 q 419 54 459 84 q 318 4 374 23 q 182 -14 247 -14 l 165 -14 q 18 69 67 -14 q 0 144 0 105 l 0 150 q 78 341 0 243 q 144 406 116 386 q 241 463 198 446 q 378 494 316 494 m 168 58 l 178 58 q 231 13 207 58 l 233 1 l 233 -10 q 111 -100 233 -83 l 82 -100 q 63 -88 71 -100 l 63 -71 q 122 -56 63 -60 q 160 -26 160 -41 l 160 -22 q 118 -10 160 -16 l 115 -3 l 115 3 q 168 58 138 58 z "},"È":{"ha":415,"x_min":0,"x_max":545,"o":"m 432 512 l 442 512 q 541 461 517 512 q 545 435 545 446 q 488 357 545 385 q 460 352 474 352 q 415 381 422 352 l 414 389 l 414 390 q 438 420 414 412 l 450 422 l 463 420 q 469 435 469 430 q 436 445 458 445 l 433 445 q 301 387 363 445 q 281 342 281 366 l 282 342 q 340 349 315 349 l 351 349 q 430 319 413 349 q 434 301 434 311 l 434 297 q 422 267 434 283 q 465 235 454 256 q 477 187 477 215 q 345 19 477 92 q 187 -14 276 -14 q 9 67 54 -14 q 0 111 0 88 l 0 117 q 84 251 0 178 q 163 300 127 285 l 201 317 q 195 354 195 337 l 195 359 q 317 490 195 438 q 432 512 378 512 m 95 115 l 95 110 q 153 62 95 74 l 182 60 l 231 64 q 205 118 205 83 l 205 120 q 293 245 205 192 q 249 262 284 245 q 111 159 155 230 q 95 115 95 132 m 279 121 l 279 121 q 302 87 302 108 l 302 84 q 396 170 373 116 q 400 193 400 185 q 393 203 400 203 l 390 203 q 300 158 355 203 q 279 121 280 136 m 382 593 l 427 598 q 490 532 445 588 l 530 478 l 528 476 l 507 474 l 479 469 q 341 555 407 522 l 336 562 q 350 587 334 585 l 382 593 z "},"É":{"ha":413,"x_min":0,"x_max":558,"o":"m 432 512 l 442 512 q 541 461 517 512 q 545 435 545 446 q 488 357 545 385 q 460 352 474 352 q 415 381 422 352 l 414 389 l 414 390 q 438 420 414 412 l 450 422 l 463 420 q 469 435 469 430 q 436 445 458 445 l 433 445 q 301 387 363 445 q 281 342 281 366 l 282 342 q 340 349 315 349 l 351 349 q 430 319 413 349 q 434 301 434 311 l 434 297 q 422 267 434 283 q 465 235 454 256 q 477 187 477 215 q 345 19 477 92 q 187 -14 276 -14 q 9 67 54 -14 q 0 111 0 88 l 0 117 q 84 251 0 178 q 163 300 127 285 l 201 317 q 195 354 195 337 l 195 359 q 317 490 195 438 q 432 512 378 512 m 95 115 l 95 110 q 153 62 95 74 l 182 60 l 231 64 q 205 118 205 83 l 205 120 q 293 245 205 192 q 249 262 284 245 q 111 159 155 230 q 95 115 95 132 m 279 121 l 279 121 q 302 87 302 108 l 302 84 q 396 170 373 116 q 400 193 400 185 q 393 203 400 203 l 390 203 q 300 158 355 203 q 279 121 280 136 m 473 593 l 511 579 q 554 551 558 563 l 551 542 q 466 510 547 530 l 389 479 l 363 490 l 345 496 l 343 498 l 341 499 q 462 593 397 551 l 473 593 z "},"Ê":{"ha":421,"x_min":0,"x_max":545,"o":"m 432 512 l 442 512 q 541 461 517 512 q 545 435 545 446 q 488 357 545 385 q 460 352 474 352 q 415 381 422 352 l 414 389 l 414 390 q 438 420 414 412 l 450 422 l 463 420 q 469 435 469 430 q 436 445 458 445 l 433 445 q 301 387 363 445 q 281 342 281 366 l 282 342 q 340 349 315 349 l 351 349 q 430 319 413 349 q 434 301 434 311 l 434 297 q 422 267 434 283 q 465 235 454 256 q 477 187 477 215 q 345 19 477 92 q 187 -14 276 -14 q 9 67 54 -14 q 0 111 0 88 l 0 117 q 84 251 0 178 q 163 300 127 285 l 201 317 q 195 354 195 337 l 195 359 q 317 490 195 438 q 432 512 378 512 m 95 115 l 95 110 q 153 62 95 74 l 182 60 l 231 64 q 205 118 205 83 l 205 120 q 293 245 205 192 q 249 262 284 245 q 111 159 155 230 q 95 115 95 132 m 279 121 l 279 121 q 302 87 302 108 l 302 84 q 396 170 373 116 q 400 193 400 185 q 393 203 400 203 l 390 203 q 300 158 355 203 q 279 121 280 136 m 450 614 l 493 612 q 509 585 510 612 l 515 552 q 528 485 515 533 q 509 465 523 465 q 458 550 475 467 q 388 488 456 550 l 377 487 l 376 487 q 361 503 360 490 l 361 511 q 435 610 361 519 q 450 614 441 614 z "},"Ë":{"ha":414,"x_min":0,"x_max":580,"o":"m 432 512 l 442 512 q 541 461 517 512 q 545 435 545 446 q 488 357 545 385 q 460 352 474 352 q 415 381 422 352 l 414 389 l 414 390 q 438 420 414 412 l 450 422 l 463 420 q 469 435 469 430 q 436 445 458 445 l 433 445 q 301 387 363 445 q 281 342 281 366 l 282 342 q 340 349 315 349 l 351 349 q 430 319 413 349 q 434 301 434 311 l 434 297 q 422 267 434 283 q 465 235 454 256 q 477 187 477 215 q 345 19 477 92 q 187 -14 276 -14 q 9 67 54 -14 q 0 111 0 88 l 0 117 q 84 251 0 178 q 163 300 127 285 l 201 317 q 195 354 195 337 l 195 359 q 317 490 195 438 q 432 512 378 512 m 95 115 l 95 110 q 153 62 95 74 l 182 60 l 231 64 q 205 118 205 83 l 205 120 q 293 245 205 192 q 249 262 284 245 q 111 159 155 230 q 95 115 95 132 m 279 121 l 279 121 q 302 87 302 108 l 302 84 q 396 170 373 116 q 400 193 400 185 q 393 203 400 203 l 390 203 q 300 158 355 203 q 279 121 280 136 m 538 574 q 580 536 566 574 l 580 525 q 534 478 573 478 l 530 478 q 484 525 484 486 l 484 532 q 522 574 484 559 l 538 574 m 340 584 q 389 544 376 584 l 389 534 q 354 489 389 503 l 340 486 q 292 533 292 494 l 292 541 q 332 584 292 570 l 340 584 z "},"Ì":{"ha":421,"x_min":0,"x_max":595,"o":"m 452 510 l 460 510 q 569 483 523 517 q 595 431 595 458 l 595 420 q 570 391 594 398 l 557 389 q 538 384 549 389 l 537 384 q 477 309 521 384 l 484 305 q 511 273 501 296 q 513 256 513 264 l 513 251 q 455 182 513 210 q 408 174 431 174 l 400 174 l 366 146 q 125 -34 237 -34 q 8 47 37 -34 q 0 104 0 76 l 0 114 q 98 319 0 248 q 172 343 135 343 l 183 343 q 243 321 215 343 l 243 321 l 243 326 q 277 426 243 375 q 340 476 316 465 q 452 510 398 510 m 331 309 q 339 288 331 294 l 340 288 q 420 388 360 323 q 481 444 466 431 l 481 444 l 473 437 q 370 399 425 437 q 334 330 347 382 l 331 309 m 114 218 l 114 218 q 134 190 134 208 l 134 186 q 123 152 134 178 l 127 149 q 191 212 158 149 q 201 255 201 235 l 201 262 q 189 278 201 278 l 187 278 q 114 218 153 278 m 272 247 q 203 106 272 179 q 125 72 167 72 q 82 85 100 72 q 119 39 92 39 l 121 39 q 300 227 185 39 q 272 247 293 228 m 414 585 l 452 592 q 509 540 467 585 l 545 496 l 544 494 l 526 491 l 503 485 q 381 551 439 526 l 376 556 q 387 578 373 576 l 414 585 z "},"Í":{"ha":424,"x_min":0,"x_max":650,"o":"m 452 510 l 460 510 q 569 483 523 517 q 595 431 595 458 l 595 420 q 570 391 594 398 l 557 389 q 538 384 549 389 l 537 384 q 477 309 521 384 l 484 305 q 511 273 501 296 q 513 256 513 264 l 513 251 q 455 182 513 210 q 408 174 431 174 l 400 174 l 366 146 q 125 -34 237 -34 q 8 47 37 -34 q 0 104 0 76 l 0 114 q 98 319 0 248 q 172 343 135 343 l 183 343 q 243 321 215 343 l 243 321 l 243 326 q 277 426 243 375 q 340 476 316 465 q 452 510 398 510 m 331 309 q 339 288 331 294 l 340 288 q 420 388 360 323 q 481 444 466 431 l 481 444 l 473 437 q 370 399 425 437 q 334 330 347 382 l 331 309 m 114 218 l 114 218 q 134 190 134 208 l 134 186 q 123 152 134 178 l 127 149 q 191 212 158 149 q 201 255 201 235 l 201 262 q 189 278 201 278 l 187 278 q 114 218 153 278 m 272 247 q 203 106 272 179 q 125 72 167 72 q 82 85 100 72 q 119 39 92 39 l 121 39 q 300 227 185 39 q 272 247 293 228 m 568 592 l 605 578 q 646 549 650 561 l 643 541 q 559 511 638 529 l 483 483 l 458 494 l 440 501 l 439 503 l 437 504 q 557 592 493 553 l 568 592 z "},"Î":{"ha":421,"x_min":0,"x_max":595,"o":"m 452 510 l 460 510 q 569 483 523 517 q 595 431 595 458 l 595 420 q 570 391 594 398 l 557 389 q 538 384 549 389 l 537 384 q 477 309 521 384 l 484 305 q 511 273 501 296 q 513 256 513 264 l 513 251 q 455 182 513 210 q 408 174 431 174 l 400 174 l 366 146 q 125 -34 237 -34 q 8 47 37 -34 q 0 104 0 76 l 0 114 q 98 319 0 248 q 172 343 135 343 l 183 343 q 243 321 215 343 l 243 321 l 243 326 q 277 426 243 375 q 340 476 316 465 q 452 510 398 510 m 331 309 q 339 288 331 294 l 340 288 q 420 388 360 323 q 481 444 466 431 l 481 444 l 473 437 q 370 399 425 437 q 334 330 347 382 l 331 309 m 114 218 l 114 218 q 134 190 134 208 l 134 186 q 123 152 134 178 l 127 149 q 191 212 158 149 q 201 255 201 235 l 201 262 q 189 278 201 278 l 187 278 q 114 218 153 278 m 272 247 q 203 106 272 179 q 125 72 167 72 q 82 85 100 72 q 119 39 92 39 l 121 39 q 300 227 185 39 q 272 247 293 228 m 489 606 l 528 606 q 546 582 544 606 l 553 549 q 565 492 556 532 q 548 473 562 473 q 500 552 518 473 q 438 488 498 552 l 429 487 l 427 487 q 413 501 413 489 l 413 509 q 476 602 413 516 q 489 606 481 606 z "},"Ï":{"ha":421,"x_min":0,"x_max":625,"o":"m 452 510 l 460 510 q 569 483 523 517 q 595 431 595 458 l 595 420 q 570 391 594 398 l 557 389 q 538 384 549 389 l 537 384 q 477 309 521 384 l 484 305 q 511 273 501 296 q 513 256 513 264 l 513 251 q 455 182 513 210 q 408 174 431 174 l 400 174 l 366 146 q 125 -34 237 -34 q 8 47 37 -34 q 0 104 0 76 l 0 114 q 98 319 0 248 q 172 343 135 343 l 183 343 q 243 321 215 343 l 243 321 l 243 326 q 277 426 243 375 q 340 476 316 465 q 452 510 398 510 m 331 309 q 339 288 331 294 l 340 288 q 420 388 360 323 q 481 444 466 431 l 481 444 l 473 437 q 370 399 425 437 q 334 330 347 382 l 331 309 m 114 218 l 114 218 q 134 190 134 208 l 134 186 q 123 152 134 178 l 127 149 q 191 212 158 149 q 201 255 201 235 l 201 262 q 189 278 201 278 l 187 278 q 114 218 153 278 m 272 247 q 203 106 272 179 q 125 72 167 72 q 82 85 100 72 q 119 39 92 39 l 121 39 q 300 227 185 39 q 272 247 293 228 m 572 587 q 625 539 607 587 l 625 526 q 567 467 616 467 l 564 467 q 505 526 505 475 l 505 534 q 553 587 505 569 l 572 587 m 394 594 q 452 547 437 594 l 452 534 q 411 480 452 496 l 394 477 q 336 533 336 487 l 336 543 q 385 594 336 578 l 394 594 z "},"Ð":{"ha":1029,"x_min":0,"x_max":0,"o":""},"Ñ":{"ha":597,"x_min":0,"x_max":803,"o":"m 349 494 l 357 494 q 452 444 429 494 q 460 406 460 427 l 460 404 q 444 325 460 370 q 620 441 547 405 q 690 466 674 466 l 695 466 q 749 422 734 466 l 751 410 q 689 323 751 382 q 612 224 643 269 q 530 92 556 137 l 527 80 l 528 80 q 611 109 601 109 q 631 96 631 109 l 631 87 q 528 -5 631 52 q 503 -9 513 -9 l 499 -9 q 450 42 460 -14 l 449 54 l 449 63 q 578 333 449 149 l 577 333 q 459 243 536 311 q 351 130 363 149 q 296 54 313 86 q 298 41 298 47 q 257 2 298 17 q 235 -1 248 -1 q 188 24 199 -1 l 186 35 l 186 37 q 217 105 186 55 l 217 106 q 117 77 172 77 q 12 138 45 77 q 0 191 0 162 l 0 199 q 163 438 0 313 q 349 494 262 494 m 77 175 q 88 146 77 152 q 104 142 95 142 l 117 142 q 212 197 182 142 l 213 203 q 206 222 206 211 l 206 224 q 237 252 206 250 q 279 219 268 252 l 281 203 l 281 203 q 366 353 347 302 q 374 397 374 381 q 355 422 374 422 l 342 425 q 149 315 256 425 q 77 175 77 236 m 572 564 l 589 564 q 705 512 608 564 l 716 512 q 776 555 739 512 l 784 555 q 803 536 803 555 l 803 528 q 738 441 803 481 l 719 439 l 697 439 q 594 488 676 439 l 570 490 q 513 450 547 490 l 496 444 q 477 463 477 444 l 477 471 q 543 558 477 524 q 572 564 553 564 z "},"Ò":{"ha":465,"x_min":0,"x_max":566,"o":"m 349 602 l 399 608 q 471 533 420 596 l 515 471 l 513 469 l 488 467 l 458 460 q 301 559 376 522 l 296 567 q 312 595 293 593 l 349 602 m 406 495 l 415 495 q 552 434 511 495 q 566 382 566 410 q 550 322 566 351 q 553 294 553 309 l 553 288 q 399 41 559 144 q 161 -23 288 -28 q 50 24 86 -13 q 0 138 0 73 l 0 146 q 52 300 0 217 q 109 366 65 322 q 406 495 258 495 m 297 406 l 298 406 q 359 412 331 412 q 502 349 444 412 l 502 355 q 443 424 502 406 q 399 430 422 430 q 301 410 353 430 l 297 406 m 89 129 l 89 127 q 119 73 89 84 q 161 68 135 68 l 162 68 q 392 170 282 68 l 393 170 l 393 171 l 392 171 q 370 163 381 163 l 369 163 q 341 186 349 163 l 340 192 q 375 235 340 210 q 458 310 408 260 q 432 347 456 323 q 337 375 398 375 q 277 390 284 375 q 275 391 277 391 q 209 346 243 374 q 145 273 158 297 q 89 129 89 189 z "},"Ó":{"ha":465,"x_min":0,"x_max":618,"o":"m 406 495 l 415 495 q 552 434 511 495 q 566 382 566 410 q 550 322 566 351 q 553 294 553 309 l 553 288 q 399 41 559 144 q 161 -23 288 -28 q 50 24 86 -13 q 0 138 0 73 l 0 146 q 52 300 0 217 q 109 366 65 322 q 406 495 258 495 m 297 406 l 298 406 q 359 412 331 412 q 502 349 444 412 l 502 355 q 443 424 502 406 q 399 430 422 430 q 301 410 353 430 l 297 406 m 89 129 l 89 127 q 119 73 89 84 q 161 68 135 68 l 162 68 q 392 170 282 68 l 393 170 l 393 171 l 392 171 q 370 163 381 163 l 369 163 q 341 186 349 163 l 340 192 q 375 235 340 210 q 458 310 408 260 q 432 347 456 323 q 337 375 398 375 q 277 390 284 375 q 275 391 277 391 q 209 346 243 374 q 145 273 158 297 q 89 129 89 189 m 519 593 l 564 574 q 612 537 618 551 l 608 528 q 504 496 602 513 l 410 465 l 381 480 l 359 490 l 358 492 l 356 493 q 506 595 426 551 l 519 593 z "},"Ô":{"ha":435,"x_min":0,"x_max":566,"o":"m 406 495 l 415 495 q 552 434 511 495 q 566 382 566 410 q 550 322 566 351 q 553 294 553 309 l 553 288 q 399 41 559 144 q 161 -23 288 -28 q 50 24 86 -13 q 0 138 0 73 l 0 146 q 52 300 0 217 q 109 366 65 322 q 406 495 258 495 m 297 406 l 298 406 q 359 412 331 412 q 502 349 444 412 l 502 355 q 443 424 502 406 q 399 430 422 430 q 301 410 353 430 l 297 406 m 89 129 l 89 127 q 119 73 89 84 q 161 68 135 68 l 162 68 q 392 170 282 68 l 393 170 l 393 171 l 392 171 q 370 163 381 163 l 369 163 q 341 186 349 163 l 340 192 q 375 235 340 210 q 458 310 408 260 q 432 347 456 323 q 337 375 398 375 q 277 390 284 375 q 275 391 277 391 q 209 346 243 374 q 145 273 158 297 q 89 129 89 189 m 424 592 l 465 592 q 481 567 481 592 l 487 539 q 504 472 488 522 q 482 463 496 463 q 433 532 450 463 q 370 469 429 532 l 360 468 l 359 468 q 344 483 344 470 l 344 490 q 410 587 344 498 q 424 592 416 592 z "},"Õ":{"ha":462,"x_min":0,"x_max":570,"o":"m 406 495 l 415 495 q 552 434 511 495 q 566 382 566 410 q 550 322 566 351 q 553 294 553 309 l 553 288 q 399 41 559 144 q 161 -23 288 -28 q 50 24 86 -13 q 0 138 0 73 l 0 146 q 52 300 0 217 q 109 366 65 322 q 406 495 258 495 m 297 406 l 298 406 q 359 412 331 412 q 502 349 444 412 l 502 355 q 443 424 502 406 q 399 430 422 430 q 301 410 353 430 l 297 406 m 89 129 l 89 127 q 119 73 89 84 q 161 68 135 68 l 162 68 q 392 170 282 68 l 393 170 l 393 171 l 392 171 q 370 163 381 163 l 369 163 q 341 186 349 163 l 340 192 q 375 235 340 210 q 458 310 408 260 q 432 347 456 323 q 337 375 398 375 q 277 390 284 375 q 275 391 277 391 q 209 346 243 374 q 145 273 158 297 q 89 129 89 189 m 340 599 l 356 599 q 473 547 375 599 l 484 547 q 543 591 507 547 l 551 591 q 570 572 570 591 l 570 564 q 505 477 570 517 l 486 474 l 465 474 q 361 523 444 474 l 337 526 q 280 485 315 526 l 264 479 q 245 498 245 479 l 245 507 q 310 593 245 559 q 340 599 321 599 z "},"Ö":{"ha":462,"x_min":0,"x_max":585,"o":"m 406 495 l 415 495 q 552 434 511 495 q 566 382 566 410 q 550 322 566 351 q 553 294 553 309 l 553 288 q 399 41 559 144 q 161 -23 288 -28 q 50 24 86 -13 q 0 138 0 73 l 0 146 q 52 300 0 217 q 109 366 65 322 q 406 495 258 495 m 297 406 l 298 406 q 359 412 331 412 q 502 349 444 412 l 502 355 q 443 424 502 406 q 399 430 422 430 q 301 410 353 430 l 297 406 m 89 129 l 89 127 q 119 73 89 84 q 161 68 135 68 l 162 68 q 392 170 282 68 l 393 170 l 393 171 l 392 171 q 370 163 381 163 l 369 163 q 341 186 349 163 l 340 192 q 375 235 340 210 q 458 310 408 260 q 432 347 456 323 q 337 375 398 375 q 277 390 284 375 q 275 391 277 391 q 209 346 243 374 q 145 273 158 297 q 89 129 89 189 m 534 572 q 585 526 568 572 l 585 513 q 529 456 576 456 l 526 456 q 469 513 469 465 l 469 521 q 515 572 469 555 l 534 572 m 355 586 q 412 539 397 586 l 412 528 q 372 475 412 491 l 355 471 q 299 526 299 481 l 299 536 q 346 586 299 570 l 355 586 z "},"×":{"ha":688,"x_min":0,"x_max":0,"o":""},"Ø":{"ha":1095,"x_min":0,"x_max":0,"o":""},"Ù":{"ha":518,"x_min":0,"x_max":660,"o":"m 395 478 l 402 478 q 485 434 464 478 l 488 419 l 488 413 q 447 322 488 385 q 345 168 418 267 q 321 123 321 134 q 323 119 321 119 l 326 119 q 484 278 450 239 q 581 393 526 326 q 623 417 605 417 l 630 417 q 659 393 651 417 l 660 385 l 660 383 q 652 349 656 349 q 593 258 652 338 q 499 117 548 196 l 507 117 q 534 94 526 117 l 534 88 q 463 10 534 56 q 423 -2 442 -2 q 382 22 393 -2 q 380 35 380 29 l 380 39 q 396 87 380 53 q 313 17 328 20 q 239 -7 275 -7 l 233 -7 q 184 26 197 -7 l 182 39 q 208 108 182 62 l 207 108 q 95 62 144 62 l 81 62 q 4 120 24 62 q 0 148 0 132 l 0 153 q 210 414 0 267 q 313 463 256 444 q 395 478 359 478 m 77 144 l 77 141 q 90 127 77 127 q 168 163 133 127 q 214 186 191 186 q 241 163 235 186 l 243 163 q 362 336 267 201 q 399 397 389 374 q 384 409 399 406 q 194 302 338 409 q 118 222 141 255 q 77 144 77 165 m 299 587 l 350 592 q 420 517 370 581 l 465 456 l 463 454 l 438 451 l 408 446 q 252 544 326 506 l 247 551 q 262 581 244 578 l 299 587 z "},"Ú":{"ha":518,"x_min":0,"x_max":660,"o":"m 395 478 l 402 478 q 485 434 464 478 l 488 419 l 488 413 q 447 322 488 385 q 345 168 418 267 q 321 123 321 134 q 323 119 321 119 l 326 119 q 484 278 450 239 q 581 393 526 326 q 623 417 605 417 l 630 417 q 659 393 651 417 l 660 385 l 660 383 q 652 349 656 349 q 593 258 652 338 q 499 117 548 196 l 507 117 q 534 94 526 117 l 534 88 q 463 10 534 56 q 423 -2 442 -2 q 382 22 393 -2 q 380 35 380 29 l 380 39 q 396 87 380 53 q 313 17 328 20 q 239 -7 275 -7 l 233 -7 q 184 26 197 -7 l 182 39 q 208 108 182 62 l 207 108 q 95 62 144 62 l 81 62 q 4 120 24 62 q 0 148 0 132 l 0 153 q 210 414 0 267 q 313 463 256 444 q 395 478 359 478 m 77 144 l 77 141 q 90 127 77 127 q 168 163 133 127 q 214 186 191 186 q 241 163 235 186 l 243 163 q 362 336 267 201 q 399 397 389 374 q 384 409 399 406 q 194 302 338 409 q 118 222 141 255 q 77 144 77 165 m 460 590 l 510 578 q 566 549 570 565 l 564 538 q 463 486 560 522 l 372 436 l 338 446 l 314 452 l 312 454 l 310 455 q 446 589 371 528 l 460 590 z "},"Û":{"ha":528,"x_min":0,"x_max":660,"o":"m 395 478 l 402 478 q 485 434 464 478 l 488 419 l 488 413 q 447 322 488 385 q 345 168 418 267 q 321 123 321 134 q 323 119 321 119 l 326 119 q 484 278 450 239 q 581 393 526 326 q 623 417 605 417 l 630 417 q 659 393 651 417 l 660 385 l 660 383 q 652 349 656 349 q 593 258 652 338 q 499 117 548 196 l 507 117 q 534 94 526 117 l 534 88 q 463 10 534 56 q 423 -2 442 -2 q 382 22 393 -2 q 380 35 380 29 l 380 39 q 396 87 380 53 q 313 17 328 20 q 239 -7 275 -7 l 233 -7 q 184 26 197 -7 l 182 39 q 208 108 182 62 l 207 108 q 95 62 144 62 l 81 62 q 4 120 24 62 q 0 148 0 132 l 0 153 q 210 414 0 267 q 313 463 256 444 q 395 478 359 478 m 77 144 l 77 141 q 90 127 77 127 q 168 163 133 127 q 214 186 191 186 q 241 163 235 186 l 243 163 q 362 336 267 201 q 399 397 389 374 q 384 409 399 406 q 194 302 338 409 q 118 222 141 255 q 77 144 77 165 m 395 478 l 402 478 q 485 434 464 478 l 488 419 l 488 413 q 447 322 488 385 q 345 168 418 267 q 321 123 321 134 q 323 119 321 119 l 326 119 q 484 278 450 239 q 581 393 526 326 q 623 417 605 417 l 630 417 q 659 393 651 417 l 660 385 l 660 383 q 652 349 656 349 q 593 258 652 338 q 499 117 548 196 l 507 117 q 534 94 526 117 l 534 88 q 463 10 534 56 q 423 -2 442 -2 q 382 22 393 -2 q 380 35 380 29 l 380 39 q 396 87 380 53 q 313 17 328 20 q 239 -7 275 -7 l 233 -7 q 184 26 197 -7 l 182 39 q 208 108 182 62 l 207 108 q 95 62 144 62 l 81 62 q 4 120 24 62 q 0 148 0 132 l 0 153 q 210 414 0 267 q 313 463 256 444 q 395 478 359 478 m 77 144 l 77 141 q 90 127 77 127 q 168 163 133 127 q 214 186 191 186 q 241 163 235 186 l 243 163 q 362 336 267 201 q 399 397 389 374 q 384 409 399 406 q 194 302 338 409 q 118 222 141 255 q 77 144 77 165 m 485 603 l 543 603 q 566 568 566 603 l 574 530 q 597 436 576 501 q 572 409 591 409 q 503 513 528 409 q 415 436 498 513 l 400 434 l 398 434 q 378 454 378 437 l 378 465 q 467 597 374 472 q 485 603 475 603 z "},"Ü":{"ha":515,"x_min":0,"x_max":713,"o":"m 395 478 l 402 478 q 485 434 464 478 l 488 419 l 488 413 q 447 322 488 385 q 345 168 418 267 q 321 123 321 134 q 323 119 321 119 l 326 119 q 484 278 450 239 q 581 393 526 326 q 623 417 605 417 l 630 417 q 659 393 648 410 l 660 385 l 660 383 q 652 349 656 349 q 593 258 652 338 q 499 117 548 196 l 507 117 q 534 94 526 117 l 534 88 q 463 10 534 56 q 423 -2 442 -2 q 382 22 393 -2 q 380 35 380 29 l 380 39 q 396 87 380 53 q 313 17 328 20 q 239 -7 275 -7 l 233 -7 q 184 26 197 -7 l 182 39 q 208 108 182 62 l 207 108 q 95 62 144 62 l 81 62 q 4 120 24 62 q 0 148 0 132 l 0 153 q 210 414 0 267 q 313 463 256 444 q 395 478 359 478 m 77 144 l 77 141 q 90 127 77 127 q 168 163 133 127 q 214 186 191 186 q 241 163 235 186 l 243 163 q 362 336 267 201 q 399 397 389 374 q 384 409 399 406 q 194 302 338 409 q 118 222 141 255 q 77 144 77 165 m 667 488 q 713 444 703 488 l 713 431 q 661 380 709 389 l 658 380 q 606 431 606 388 l 606 439 q 650 488 609 476 l 667 488 m 481 547 q 534 503 521 547 l 534 492 q 496 441 534 457 l 481 439 q 429 490 429 448 l 429 500 q 472 547 429 531 l 481 547 z "},"Ý":{"ha":836,"x_min":0,"x_max":0,"o":""},"Þ":{"ha":760,"x_min":0,"x_max":0,"o":""},"ß":{"ha":848,"x_min":0,"x_max":0,"o":""},"à":{"ha":254,"x_min":0,"x_max":315,"o":"m 203 263 l 208 263 q 245 245 237 263 q 275 226 259 245 q 282 207 281 217 q 235 116 287 177 q 208 72 208 77 l 210 71 q 275 123 242 81 q 296 137 281 134 q 315 113 315 137 q 298 68 315 94 q 199 5 248 5 q 147 37 169 5 q 144 43 146 43 q 69 0 98 0 q 7 35 33 0 q 0 64 0 47 l 0 70 q 117 232 0 140 q 203 263 164 263 m 68 62 l 69 60 l 70 60 q 144 127 97 67 q 190 188 184 168 l 189 189 l 186 189 q 117 131 168 184 q 68 62 68 76 m 121 302 l 149 313 q 201 281 162 310 l 235 254 l 235 252 l 221 247 l 205 239 q 101 271 149 260 l 97 274 q 101 293 92 289 l 121 302 z "},"á":{"ha":269,"x_min":0,"x_max":315,"o":"m 203 263 l 208 263 q 245 245 237 263 q 275 226 259 245 q 282 207 281 217 q 235 116 287 177 q 208 72 208 77 l 210 71 q 275 123 242 81 q 296 137 281 134 q 315 113 315 137 q 298 68 315 94 q 199 5 248 5 q 147 37 169 5 q 144 43 146 43 q 69 0 98 0 q 7 35 33 0 q 0 64 0 47 l 0 70 q 117 232 0 140 q 203 263 164 263 m 68 62 l 69 60 l 70 60 q 144 127 97 67 q 190 188 184 168 l 189 189 l 186 189 q 117 131 168 184 q 68 62 68 76 m 239 311 l 262 303 q 288 285 291 292 l 286 279 q 234 261 283 272 l 186 243 l 171 250 l 159 254 l 159 256 l 158 256 q 233 312 193 288 l 239 311 z "},"â":{"ha":258,"x_min":0,"x_max":315,"o":"m 203 263 l 208 263 q 245 245 237 263 q 275 226 259 245 q 282 207 281 217 q 235 116 287 177 q 208 72 208 77 l 210 71 q 275 123 242 81 q 296 137 281 134 q 315 113 315 137 q 298 68 315 94 q 199 5 248 5 q 147 37 169 5 q 144 43 146 43 q 69 0 98 0 q 7 35 33 0 q 0 64 0 47 l 0 70 q 117 232 0 140 q 203 263 164 263 m 68 62 l 69 60 l 70 60 q 144 127 97 67 q 190 188 184 168 l 189 189 l 186 189 q 117 131 168 184 q 68 62 68 76 m 184 315 l 208 315 q 217 300 217 315 l 221 283 q 229 253 221 273 q 219 242 227 242 q 191 282 201 242 q 155 245 189 282 l 149 245 l 148 245 q 140 253 140 245 l 140 257 q 177 312 140 262 q 184 315 180 315 z "},"ã":{"ha":263,"x_min":0,"x_max":315,"o":"m 203 263 l 208 263 q 245 245 237 263 q 275 226 259 245 q 282 207 281 217 q 235 116 287 177 q 208 72 208 77 l 210 71 q 275 123 242 81 q 296 137 281 134 q 315 113 315 137 q 298 68 315 94 q 199 5 248 5 q 147 37 169 5 q 144 43 146 43 q 69 0 98 0 q 7 35 33 0 q 0 64 0 47 l 0 70 q 117 232 0 140 q 203 263 164 263 m 68 62 l 69 60 l 70 60 q 144 127 97 67 q 190 188 184 168 l 189 189 l 186 189 q 117 131 168 184 q 68 62 68 76 m 152 319 l 161 319 q 230 289 173 319 l 236 289 q 271 314 250 289 l 276 314 q 288 303 288 314 l 288 298 q 249 248 288 271 l 238 245 l 225 245 q 165 275 213 245 l 151 276 q 117 252 137 276 l 107 249 q 96 260 96 249 l 96 265 q 134 316 96 296 q 152 319 140 319 z "},"ä":{"ha":265,"x_min":0,"x_max":315,"o":"m 203 263 l 208 263 q 245 245 237 263 q 275 226 259 245 q 282 207 281 217 q 235 116 287 177 q 208 72 208 77 l 210 71 q 275 123 242 81 q 296 137 281 134 q 315 113 315 137 q 298 68 315 94 q 199 5 248 5 q 147 37 169 5 q 144 43 146 43 q 69 0 98 0 q 7 35 33 0 q 0 64 0 47 l 0 70 q 117 232 0 140 q 203 263 164 263 m 68 62 l 69 60 l 70 60 q 144 127 97 67 q 190 188 184 168 l 189 189 l 186 189 q 117 131 168 184 q 68 62 68 76 m 231 307 q 258 281 249 307 l 258 275 q 228 244 254 244 l 226 244 q 196 275 196 249 l 196 279 q 221 307 196 297 l 231 307 m 142 302 q 174 276 166 302 l 174 270 q 151 240 174 249 l 142 238 q 111 269 111 243 l 111 275 q 137 302 111 294 l 142 302 z "},"å":{"ha":265,"x_min":0,"x_max":315,"o":"m 203 263 l 208 263 q 245 245 237 263 q 275 226 259 245 q 282 207 281 217 q 235 116 287 177 q 208 72 208 77 l 210 71 q 275 123 242 81 q 296 137 281 134 q 315 113 315 137 q 298 68 315 94 q 199 5 248 5 q 147 37 169 5 q 144 43 146 43 q 69 0 98 0 q 7 35 33 0 q 0 64 0 47 l 0 70 q 117 232 0 140 q 203 263 164 263 m 68 62 l 69 60 l 70 60 q 144 127 97 67 q 190 188 184 168 l 189 189 l 186 189 q 117 131 168 184 q 68 62 68 76 m 218 324 q 251 296 240 324 l 252 289 l 252 288 q 223 252 252 261 l 215 252 l 214 252 q 180 279 190 252 l 179 286 l 179 290 q 210 324 179 315 l 218 324 m 197 288 l 197 288 q 216 270 197 273 q 233 288 233 274 q 216 306 233 302 l 215 306 q 197 288 197 303 z "},"æ":{"ha":986,"x_min":0,"x_max":0,"o":""},"ç":{"ha":204,"x_min":0,"x_max":243,"o":"m 174 252 l 180 252 q 231 216 217 252 l 233 195 q 200 158 233 166 l 192 157 l 191 157 q 161 176 161 162 l 159 188 q 85 118 123 173 q 71 78 73 93 q 89 62 71 62 q 170 106 122 62 q 213 137 208 137 q 222 139 216 139 q 243 115 243 130 l 243 110 q 200 50 243 90 q 74 0 136 -3 q 17 24 46 0 q 0 68 0 43 l 0 73 q 93 217 0 136 q 174 252 138 252 m 89 43 l 94 43 q 127 15 113 43 l 128 8 l 128 1 q 54 -54 128 -43 l 37 -54 q 25 -47 30 -54 l 25 -36 q 61 -26 25 -29 q 84 -8 84 -18 l 84 -6 q 59 1 84 -2 l 56 5 l 56 9 q 89 43 71 43 z "},"è":{"ha":220,"x_min":0,"x_max":256,"o":"m 174 252 l 180 252 q 231 217 216 252 l 233 203 q 107 87 233 137 l 75 81 l 73 66 q 80 58 73 58 l 81 58 l 81 57 q 209 115 132 57 q 235 123 224 123 q 256 99 256 115 q 189 30 256 62 q 74 0 134 0 q 17 24 46 0 q 0 68 0 43 l 0 73 q 93 223 0 148 q 174 252 138 252 m 79 126 l 81 125 l 82 125 q 166 167 116 125 q 187 205 187 191 q 176 211 187 211 l 175 211 q 110 168 162 211 q 79 126 79 140 m 103 303 l 132 311 q 178 274 144 305 l 209 243 l 208 241 l 194 237 l 178 232 q 80 275 125 259 l 77 278 q 83 296 73 293 l 103 303 z "},"é":{"ha":154,"x_min":0,"x_max":256,"o":"m 174 252 l 180 252 q 231 217 216 252 l 233 203 q 107 87 233 137 l 75 81 l 73 66 q 80 58 73 58 l 81 58 l 81 57 q 209 115 132 57 q 235 123 224 123 q 256 99 256 115 q 189 30 256 62 q 74 0 134 0 q 17 24 46 0 q 0 68 0 43 l 0 73 q 93 223 0 148 q 174 252 138 252 m 79 126 l 81 125 l 82 125 q 166 167 116 125 q 187 205 187 191 q 176 211 187 211 l 175 211 q 110 168 162 211 q 79 126 79 140 m 143 309 l 168 312 q 198 307 197 315 l 199 302 q 161 262 199 294 l 127 225 l 111 224 l 99 222 l 98 224 l 96 223 q 137 306 113 267 l 143 309 z "},"ê":{"ha":158,"x_min":0,"x_max":256,"o":"m 174 252 l 180 252 q 231 217 216 252 l 233 203 q 107 87 233 137 l 75 81 l 73 66 q 80 58 73 58 l 81 58 l 81 57 q 209 115 132 57 q 235 123 224 123 q 256 99 256 115 q 189 30 256 62 q 74 0 134 0 q 17 24 46 0 q 0 68 0 43 l 0 73 q 93 223 0 148 q 174 252 138 252 m 79 126 l 81 125 l 82 125 q 166 167 116 125 q 187 205 187 191 q 176 211 187 211 l 175 211 q 110 168 162 211 q 79 126 79 140 m 134 315 l 162 317 q 176 300 174 318 l 182 280 q 194 238 185 269 q 183 224 193 225 q 147 275 161 223 q 104 230 145 275 l 97 229 l 96 229 q 85 238 86 229 l 85 243 q 125 312 85 248 q 134 315 130 315 z "},"ë":{"ha":157,"x_min":0,"x_max":256,"o":"m 174 252 l 180 252 q 231 217 216 252 l 233 203 q 107 87 233 137 l 75 81 l 73 66 q 80 58 73 58 l 81 58 l 81 57 q 209 115 132 57 q 235 123 224 123 q 256 99 256 115 q 189 30 256 62 q 74 0 134 0 q 17 24 46 0 q 0 68 0 43 l 0 73 q 93 223 0 148 q 174 252 138 252 m 79 126 l 81 125 l 82 125 q 166 167 116 125 q 187 205 187 191 q 176 211 187 211 l 175 211 q 110 168 162 211 q 79 126 79 140 m 186 301 q 214 277 204 301 l 214 271 q 184 241 210 241 l 183 241 q 154 271 154 245 l 154 275 q 178 301 154 292 l 186 301 m 106 286 q 138 259 129 286 l 138 253 q 115 222 138 232 l 106 221 q 74 252 74 227 l 74 258 q 100 286 74 276 l 106 286 z "},"ì":{"ha":157,"x_min":0,"x_max":206,"o":"m 157 298 l 162 298 q 205 264 191 298 l 206 256 l 206 251 q 172 211 206 224 l 163 210 l 163 203 q 138 164 163 193 q 68 60 71 78 l 70 60 q 144 111 96 68 q 176 135 163 135 l 178 135 q 199 115 201 135 q 100 13 199 75 q 62 0 76 0 l 56 0 q 1 43 15 0 l 0 60 l 0 66 q 61 201 0 112 q 113 240 92 240 l 114 241 l 114 241 l 113 253 l 113 255 q 148 297 113 285 l 157 298 m 109 360 l 136 361 q 172 317 147 355 l 193 282 l 193 281 l 179 281 l 162 279 q 81 338 120 315 l 79 343 q 88 358 78 357 l 109 360 z "},"í":{"ha":144,"x_min":0,"x_max":243,"o":"m 157 298 l 162 298 q 205 264 191 298 l 206 256 l 206 251 q 172 211 206 224 l 163 210 l 163 203 q 138 164 163 193 q 68 60 71 78 l 70 60 q 144 111 96 68 q 176 135 163 135 l 178 135 q 199 115 201 135 q 100 13 199 75 q 62 0 76 0 l 56 0 q 1 43 15 0 l 0 60 l 0 66 q 61 201 0 112 q 113 240 92 240 l 114 241 l 114 241 l 113 253 l 113 255 q 148 297 113 285 l 157 298 m 195 345 l 216 341 q 242 328 243 335 l 241 323 q 197 299 239 316 l 156 276 l 142 281 l 131 283 l 130 284 l 129 284 q 189 345 155 317 l 195 345 z "},"î":{"ha":145,"x_min":0,"x_max":206,"o":"m 157 298 l 162 298 q 205 264 191 298 l 206 256 l 206 251 q 172 211 206 224 l 163 210 l 163 203 q 138 164 163 193 q 68 60 71 78 l 70 60 q 144 111 96 68 q 176 135 163 135 l 178 135 q 199 115 201 135 q 100 13 199 75 q 62 0 76 0 l 56 0 q 1 43 15 0 l 0 60 l 0 66 q 61 201 0 112 q 113 240 92 240 l 114 241 l 114 241 l 113 253 l 113 255 q 148 297 113 285 l 157 298 m 114 385 l 150 385 q 164 363 164 385 l 170 335 q 184 281 170 319 q 168 264 180 264 q 118 328 140 264 q 67 278 115 328 l 58 277 l 57 277 q 44 290 44 279 l 44 296 q 102 381 44 303 q 114 385 107 385 z "},"ï":{"ha":157,"x_min":0,"x_max":206,"o":"m 64 298 q 104 262 90 298 l 104 252 q 61 210 97 210 l 58 210 q 16 252 16 216 l 16 258 q 51 298 16 284 l 64 298 m 157 298 l 162 298 q 205 264 191 298 l 206 256 l 206 251 q 172 211 206 224 l 163 210 l 163 203 q 138 164 163 193 q 68 60 71 78 l 70 60 q 144 111 96 68 q 176 135 163 135 l 178 135 q 199 115 201 135 q 100 13 199 75 q 62 0 76 0 l 56 0 q 1 43 15 0 l 0 60 l 0 66 q 61 201 0 112 q 113 240 92 240 l 114 241 l 114 241 l 113 253 l 113 255 q 148 297 113 285 l 157 298 z "},"ð":{"ha":772,"x_min":0,"x_max":0,"o":""},"ñ":{"ha":279,"x_min":-24,"x_max":335,"o":"m 244 253 l 257 254 q 293 223 285 252 l 294 215 q 273 175 294 198 q 205 77 212 102 l 205 77 l 208 75 q 269 132 217 75 q 292 144 279 144 q 317 119 317 140 l 317 119 q 244 27 317 93 q 191 0 212 0 l 185 0 q 131 44 143 0 l 130 56 l 130 64 l 131 86 q 75 17 104 52 q 50 0 60 0 l 44 0 q 5 37 17 0 l 5 41 l 5 44 l 6 57 l 6 58 l 5 58 q -23 72 -16 56 l -24 75 l -24 79 l -24 82 q 9 127 -24 94 q 99 235 71 203 q 119 245 112 245 l 124 245 q 159 222 149 245 l 161 211 l 161 208 l 160 200 l 161 200 q 236 251 213 245 l 244 253 m 194 319 l 204 319 q 275 288 216 319 l 282 288 q 319 314 296 288 l 323 314 q 335 302 335 314 l 335 298 q 295 244 335 269 l 283 243 l 271 243 q 207 273 258 243 l 192 275 q 157 250 178 275 l 147 246 q 136 258 136 246 l 136 262 q 176 316 136 295 q 194 319 182 319 z "},"ò":{"ha":182,"x_min":-7,"x_max":263,"o":"m 157 263 l 163 263 q 205 227 200 263 l 207 198 l 207 197 l 209 195 q 242 202 236 202 q 263 180 260 202 l 263 180 q 202 128 263 155 q 140 45 201 115 q 58 0 96 0 l 50 0 q -6 52 8 0 l -7 64 l -7 68 q 78 215 -7 121 q 157 263 124 263 m 60 79 q 68 68 61 68 q 132 134 91 77 q 149 174 149 164 l 149 176 q 140 189 147 189 q 87 134 130 189 q 60 79 60 93 m 105 317 l 134 321 q 175 279 146 315 l 200 245 l 199 243 l 185 241 l 168 238 q 79 293 121 272 l 76 297 q 85 313 75 312 l 105 317 z "},"ó":{"ha":182,"x_min":-7,"x_max":263,"o":"m 157 263 l 163 263 q 205 227 200 263 l 207 198 l 207 197 l 209 195 q 242 202 236 202 q 263 180 260 202 l 263 180 q 202 128 263 155 q 140 45 201 115 q 58 0 96 0 l 50 0 q -6 52 8 0 l -7 64 l -7 68 q 78 215 -7 121 q 157 263 124 263 m 60 79 q 68 68 61 68 q 132 134 91 77 q 149 174 149 164 l 149 176 q 140 189 147 189 q 87 134 130 189 q 60 79 60 93 m 189 321 l 215 316 q 245 302 247 311 l 245 296 q 193 267 243 288 l 147 237 l 130 241 l 116 244 l 115 245 l 114 245 q 182 319 144 286 l 189 321 z "},"ô":{"ha":182,"x_min":-7,"x_max":263,"o":"m 157 263 l 163 263 q 205 227 200 263 l 207 198 l 207 197 l 209 195 q 242 202 236 202 q 263 180 260 202 l 263 180 q 202 128 263 155 q 140 45 201 115 q 58 0 96 0 l 50 0 q -6 52 8 0 l -7 64 l -7 68 q 78 215 -7 121 q 157 263 124 263 m 60 79 q 68 68 61 68 q 132 134 91 77 q 149 174 149 164 l 149 176 q 140 189 147 189 q 87 134 130 189 q 60 79 60 93 m 141 325 l 168 325 q 178 309 178 325 l 181 288 q 190 255 182 277 q 178 242 187 242 q 144 283 157 242 q 106 245 142 283 l 100 245 l 99 245 q 90 254 90 246 l 90 259 q 132 322 90 264 q 141 325 136 325 z "},"õ":{"ha":182,"x_min":-7,"x_max":263,"o":"m 157 263 l 163 263 q 205 227 200 263 l 207 198 l 207 197 l 209 195 q 242 202 236 202 q 263 180 260 202 l 263 180 q 202 128 263 155 q 140 45 201 115 q 58 0 96 0 l 50 0 q -6 52 8 0 l -7 64 l -7 68 q 78 215 -7 121 q 157 263 124 263 m 60 79 q 68 68 61 68 q 132 134 91 77 q 149 174 149 164 l 149 176 q 140 189 147 189 q 87 134 130 189 q 60 79 60 93 m 109 315 l 118 315 q 178 288 127 315 l 184 288 q 216 311 197 288 l 220 311 q 230 301 230 311 l 230 297 q 196 252 230 273 l 186 250 l 174 250 q 121 276 163 250 l 108 277 q 78 256 96 277 l 70 253 q 60 263 60 253 l 60 267 q 94 313 60 294 q 109 315 99 315 z "},"ö":{"ha":182,"x_min":-7,"x_max":263,"o":"m 157 263 l 163 263 q 205 227 200 263 l 207 198 l 207 197 l 209 195 q 242 202 236 202 q 263 180 260 202 l 263 180 q 202 128 263 155 q 140 45 201 115 q 58 0 96 0 l 50 0 q -6 52 8 0 l -7 64 l -7 68 q 78 215 -7 121 q 157 263 124 263 m 60 79 q 68 68 61 68 q 132 134 91 77 q 149 174 149 164 l 149 176 q 140 189 147 189 q 87 134 130 189 q 60 79 60 93 m 208 298 q 233 275 224 298 l 233 268 q 205 240 229 240 l 203 240 q 176 268 176 244 l 176 272 q 199 298 176 289 l 208 298 m 118 300 q 146 276 139 300 l 146 271 q 126 243 146 252 l 118 242 q 90 270 90 247 l 90 275 q 113 300 90 292 l 118 300 z "},"÷":{"ha":688,"x_min":0,"x_max":0,"o":""},"ø":{"ha":685,"x_min":0,"x_max":0,"o":""},"ù":{"ha":277,"x_min":-10,"x_max":321,"o":"m 259 248 l 264 248 q 304 218 294 248 l 306 208 q 261 142 306 193 q 214 76 219 92 l 214 75 l 214 75 q 272 118 236 83 q 296 130 282 130 q 321 105 321 126 l 321 100 q 279 54 321 83 q 193 0 220 0 l 189 0 q 132 38 146 0 l 132 41 q 52 -3 87 -3 l 47 -3 q 2 35 15 -3 q -1 57 -1 47 l 2 75 q -10 94 -5 75 l -10 98 q 18 140 -10 112 q 96 230 81 217 q 138 246 115 246 q 174 216 174 243 l 174 210 q 155 180 174 197 q 81 77 97 114 l 81 76 l 83 76 q 184 185 155 147 q 259 248 236 248 m 210 305 l 241 307 q 281 259 253 299 l 305 220 l 304 219 l 289 218 l 271 216 q 180 281 224 256 l 178 286 q 189 303 177 302 l 210 305 z "},"ú":{"ha":277,"x_min":-10,"x_max":382,"o":"m 259 248 l 264 248 q 304 218 294 248 l 306 208 q 261 142 306 193 q 214 76 219 92 l 214 75 l 214 75 q 272 118 236 83 q 296 130 282 130 q 321 105 321 126 l 321 100 q 279 54 321 83 q 193 0 220 0 l 189 0 q 132 38 146 0 l 132 41 q 52 -3 87 -3 l 47 -3 q 2 35 15 -3 q -1 57 -1 47 l 2 75 q -10 94 -5 75 l -10 98 q 18 140 -10 112 q 96 230 81 217 q 138 246 115 246 q 174 216 174 243 l 174 210 q 155 180 174 197 q 81 77 97 114 l 81 76 l 83 76 q 184 185 155 147 q 259 248 236 248 m 311 309 l 343 303 q 380 286 382 296 l 379 278 q 315 241 377 268 l 256 207 l 235 212 l 218 216 l 218 217 l 216 218 q 301 308 254 267 l 311 309 z "},"û":{"ha":277,"x_min":-10,"x_max":321,"o":"m 259 248 l 264 248 q 304 218 294 248 l 306 208 q 261 142 306 193 q 214 76 219 92 l 214 75 l 214 75 q 272 118 236 83 q 296 130 282 130 q 321 105 321 126 l 321 100 q 279 54 321 83 q 193 0 220 0 l 189 0 q 132 38 146 0 l 132 41 q 52 -3 87 -3 l 47 -3 q 2 35 15 -3 q -1 57 -1 47 l 2 75 q -10 94 -5 75 l -10 98 q 18 140 -10 112 q 96 230 81 217 q 138 246 115 246 q 174 216 174 243 l 174 210 q 155 180 174 197 q 81 77 97 114 l 81 76 l 83 76 q 184 185 155 147 q 259 248 236 248 m 213 376 l 257 376 q 275 349 275 376 l 283 315 q 298 248 287 294 q 279 228 294 228 q 218 307 245 228 q 157 245 214 307 l 146 243 l 144 243 q 128 259 128 245 l 128 267 q 199 371 128 276 q 213 376 205 376 z "},"ü":{"ha":277,"x_min":-10,"x_max":351,"o":"m 259 248 l 264 248 q 304 218 294 248 l 306 208 q 261 142 306 193 q 214 76 219 92 l 214 75 l 214 75 q 272 118 236 83 q 296 130 282 130 q 321 105 321 126 l 321 100 q 279 54 321 83 q 193 0 220 0 l 189 0 q 132 38 146 0 l 132 41 q 52 -3 87 -3 l 47 -3 q 2 35 15 -3 q -1 57 -1 47 l 2 75 q -10 94 -5 75 l -10 98 q 18 140 -10 112 q 96 230 81 217 q 138 246 115 246 q 174 216 174 243 l 174 210 q 155 180 174 197 q 81 77 97 114 l 81 76 l 83 76 q 184 185 155 147 q 259 248 236 248 m 308 313 q 351 274 336 313 l 351 263 q 304 216 344 216 l 301 216 q 254 263 254 223 l 254 270 q 293 313 254 298 l 308 313 m 158 317 q 207 277 194 317 l 207 267 q 172 222 207 236 l 158 219 q 110 266 110 227 l 110 275 q 150 317 110 303 l 158 317 z "},"ý":{"ha":267,"x_min":-41,"x_max":326,"o":"m 138 229 l 144 229 q 182 194 182 225 l 182 189 q 92 92 182 176 l 92 91 l 92 87 q 178 144 98 87 q 233 200 216 176 q 277 225 252 225 q 318 198 300 225 q 322 180 322 190 q 281 93 326 159 q 222 11 262 64 q 161 -62 195 -22 q 35 -125 90 -125 l 28 -125 q -38 -72 -15 -125 l -41 -52 l -41 -45 q -26 -17 -41 -29 q 6 -43 -13 -17 q 28 -56 20 -56 q 114 -7 57 -56 q 159 52 144 29 l 159 52 l 158 52 q 54 2 92 2 q 3 43 16 2 l 1 56 q 86 199 1 102 q 138 229 116 229 m 211 319 l 254 312 q 306 290 308 304 l 304 280 q 220 229 302 266 l 143 180 l 114 186 l 92 190 l 91 192 l 89 192 q 199 317 138 259 l 211 319 z "},"þ":{"ha":685,"x_min":0,"x_max":0,"o":""},"ÿ":{"ha":269,"x_min":-41,"x_max":366,"o":"m 138 229 l 144 229 q 182 194 182 225 l 182 189 q 92 92 182 176 l 92 91 l 92 87 q 178 144 98 87 q 233 200 216 176 q 277 225 252 225 q 318 198 300 225 q 322 180 322 190 q 281 93 326 159 q 222 11 262 64 q 161 -62 195 -22 q 35 -125 90 -125 l 28 -125 q -38 -72 -15 -125 l -41 -52 l -41 -45 q -26 -17 -41 -29 q 6 -43 -13 -17 q 28 -56 20 -56 q 114 -7 57 -56 q 159 52 144 29 l 159 52 l 158 52 q 54 2 92 2 q 3 43 16 2 l 1 56 q 86 199 1 102 q 138 229 116 229 m 319 290 q 366 248 350 290 l 366 237 q 315 186 358 186 l 312 186 q 261 237 261 193 l 261 244 q 303 290 261 274 l 319 290 m 168 309 q 218 268 205 309 l 218 258 q 182 210 218 224 l 168 208 q 118 256 118 216 l 118 265 q 159 309 118 295 l 168 309 z "},"ı":{"ha":349,"x_min":0,"x_max":0,"o":""},"ˆ":{"ha":694,"x_min":0,"x_max":0,"o":""},"ˇ":{"ha":694,"x_min":0,"x_max":0,"o":""},"ˉ":{"ha":694,"x_min":0,"x_max":0,"o":""},"˘":{"ha":694,"x_min":0,"x_max":0,"o":""},"˙":{"ha":694,"x_min":0,"x_max":0,"o":""},"˚":{"ha":694,"x_min":0,"x_max":0,"o":""},"˛":{"ha":694,"x_min":0,"x_max":0,"o":""},"˜":{"ha":694,"x_min":0,"x_max":0,"o":""},"˝":{"ha":694,"x_min":0,"x_max":0,"o":""},"–":{"ha":751,"x_min":0,"x_max":0,"o":""},"—":{"ha":1389,"x_min":0,"x_max":0,"o":""},"‘":{"ha":378,"x_min":0,"x_max":0,"o":""},"’":{"ha":378,"x_min":0,"x_max":0,"o":""},"‚":{"ha":378,"x_min":0,"x_max":0,"o":""},"“":{"ha":617,"x_min":0,"x_max":0,"o":""},"”":{"ha":617,"x_min":0,"x_max":0,"o":""},"„":{"ha":617,"x_min":0,"x_max":0,"o":""},"†":{"ha":688,"x_min":0,"x_max":0,"o":""},"‡":{"ha":688,"x_min":0,"x_max":0,"o":""},"•":{"ha":694,"x_min":0,"x_max":0,"o":""},"…":{"ha":1389,"x_min":0,"x_max":0,"o":""},"‹":{"ha":428,"x_min":0,"x_max":0,"o":""},"›":{"ha":428,"x_min":0,"x_max":0,"o":""},"⁄":{"ha":232,"x_min":0,"x_max":0,"o":""},"₣":{"ha":688,"x_min":0,"x_max":0,"o":""},"₤":{"ha":688,"x_min":0,"x_max":0,"o":""},"₧":{"ha":1375,"x_min":0,"x_max":0,"o":""},"€":{"ha":688,"x_min":0,"x_max":0,"o":""},"№":{"ha":1540,"x_min":0,"x_max":0,"o":""},"™":{"ha":1015,"x_min":0,"x_max":0,"o":""},"∂":{"ha":688,"x_min":0,"x_max":0,"o":""},"∆":{"ha":733,"x_min":0,"x_max":0,"o":""},"∏":{"ha":1027,"x_min":0,"x_max":0,"o":""},"∑":{"ha":818,"x_min":0,"x_max":0,"o":""},"−":{"ha":688,"x_min":0,"x_max":0,"o":""},"√":{"ha":688,"x_min":0,"x_max":0,"o":""},"∞":{"ha":688,"x_min":0,"x_max":0,"o":""},"∫":{"ha":451,"x_min":0,"x_max":0,"o":""},"≈":{"ha":688,"x_min":0,"x_max":0,"o":""},"≤":{"ha":688,"x_min":0,"x_max":0,"o":""},"≥":{"ha":688,"x_min":0,"x_max":0,"o":""},"":{"ha":728,"x_min":0,"x_max":0,"o":""},"":{"ha":733,"x_min":0,"x_max":0,"o":""}}}
